<svg width="737" height="756" viewBox="0 0 737 756" fill="none" xmlns="http://www.w3.org/2000/svg">
<g clip-path="url(#clip0_140_13698)">
<g clip-path="url(#clip1_140_13698)">
<line x1="0.5" y1="-12" x2="0.5" y2="756" stroke="#EAECF0"/>
<line x1="48.5" y1="-12" x2="48.5" y2="756" stroke="#EAECF0"/>
<line x1="96.5" y1="-12" x2="96.5" y2="756" stroke="#EAECF0"/>
<line x1="144.5" y1="-12" x2="144.5" y2="756" stroke="#EAECF0"/>
<line x1="192.5" y1="-12" x2="192.5" y2="756" stroke="#EAECF0"/>
<line x1="240.5" y1="-12" x2="240.5" y2="756" stroke="#EAECF0"/>
<line x1="288.5" y1="-12" x2="288.5" y2="756" stroke="#EAECF0"/>
<line x1="336.5" y1="-12" x2="336.5" y2="756" stroke="#EAECF0"/>
<line x1="384.5" y1="-12" x2="384.5" y2="756" stroke="#EAECF0"/>
<line x1="432.5" y1="-12" x2="432.5" y2="756" stroke="#EAECF0"/>
<line x1="480.5" y1="-12" x2="480.5" y2="756" stroke="#EAECF0"/>
<line x1="528.5" y1="-12" x2="528.5" y2="756" stroke="#EAECF0"/>
<line x1="576.5" y1="-12" x2="576.5" y2="756" stroke="#EAECF0"/>
<line x1="624.5" y1="-12" x2="624.5" y2="756" stroke="#EAECF0"/>
<line x1="672.5" y1="-12" x2="672.5" y2="756" stroke="#EAECF0"/>
<line x1="720.5" y1="-12" x2="720.5" y2="756" stroke="#EAECF0"/>
</g>
<rect x="0.5" y="-11.5" width="767" height="767" stroke="#EAECF0"/>
<g clip-path="url(#clip2_140_13698)">
<line y1="35.5" x2="768" y2="35.5" stroke="#EAECF0"/>
<line y1="83.5" x2="768" y2="83.5" stroke="#EAECF0"/>
<line y1="131.5" x2="768" y2="131.5" stroke="#EAECF0"/>
<line y1="179.5" x2="768" y2="179.5" stroke="#EAECF0"/>
<line y1="227.5" x2="768" y2="227.5" stroke="#EAECF0"/>
<line y1="275.5" x2="768" y2="275.5" stroke="#EAECF0"/>
<line y1="323.5" x2="768" y2="323.5" stroke="#EAECF0"/>
<line y1="371.5" x2="768" y2="371.5" stroke="#EAECF0"/>
<line y1="419.5" x2="768" y2="419.5" stroke="#EAECF0"/>
<line y1="467.5" x2="768" y2="467.5" stroke="#EAECF0"/>
<line y1="515.5" x2="768" y2="515.5" stroke="#EAECF0"/>
<line y1="563.5" x2="768" y2="563.5" stroke="#EAECF0"/>
<line y1="611.5" x2="768" y2="611.5" stroke="#EAECF0"/>
<line y1="659.5" x2="768" y2="659.5" stroke="#EAECF0"/>
<line y1="707.5" x2="768" y2="707.5" stroke="#EAECF0"/>
<line y1="755.5" x2="768" y2="755.5" stroke="#EAECF0"/>
</g>
<rect x="0.5" y="-11.5" width="767" height="767" stroke="#EAECF0"/>
</g>
<defs>
<clipPath id="clip0_140_13698">
<rect width="768" height="768" fill="white" transform="translate(0 -12)"/>
</clipPath>
<clipPath id="clip1_140_13698">
<rect y="-12" width="768" height="768" fill="white"/>
</clipPath>
<clipPath id="clip2_140_13698">
<rect y="-12" width="768" height="768" fill="white"/>
</clipPath>
</defs>
</svg>
