<svg width="24" height="25" viewBox="0 0 24 25" fill="none" xmlns="http://www.w3.org/2000/svg">
<g id="message-dots-circle">
<path id="Icon" d="M7.5 12.1578H7.51M12 12.1578H12.01M16.5 12.1578H16.51M12 21.1578C16.9706 21.1578 21 17.1284 21 12.1578C21 7.18727 16.9706 3.15784 12 3.15784C7.02944 3.15784 3 7.18727 3 12.1578C3 13.355 3.23374 14.4975 3.65806 15.5423C3.73927 15.7423 3.77988 15.8423 3.798 15.9231C3.81572 16.0022 3.8222 16.0607 3.82221 16.1417C3.82222 16.2245 3.80718 16.3148 3.77711 16.4952L3.18413 20.0531C3.12203 20.4257 3.09098 20.6119 3.14876 20.7467C3.19933 20.8646 3.29328 20.9585 3.41118 21.0091C3.54589 21.0669 3.73218 21.0358 4.10476 20.9737L7.66265 20.3807C7.84309 20.3507 7.9333 20.3356 8.01613 20.3356C8.09715 20.3356 8.15566 20.3421 8.23472 20.3598C8.31554 20.378 8.41552 20.4186 8.61549 20.4998C9.6603 20.9241 10.8029 21.1578 12 21.1578ZM8 12.1578C8 12.434 7.77614 12.6578 7.5 12.6578C7.22386 12.6578 7 12.434 7 12.1578C7 11.8817 7.22386 11.6578 7.5 11.6578C7.77614 11.6578 8 11.8817 8 12.1578ZM12.5 12.1578C12.5 12.434 12.2761 12.6578 12 12.6578C11.7239 12.6578 11.5 12.434 11.5 12.1578C11.5 11.8817 11.7239 11.6578 12 11.6578C12.2761 11.6578 12.5 11.8817 12.5 12.1578ZM17 12.1578C17 12.434 16.7761 12.6578 16.5 12.6578C16.2239 12.6578 16 12.434 16 12.1578C16 11.8817 16.2239 11.6578 16.5 11.6578C16.7761 11.6578 17 11.8817 17 12.1578Z" stroke="#667085" stroke-width="1.7" stroke-linecap="round" stroke-linejoin="round"/>
</g>
</svg>
