<svg width="16" height="17" viewBox="0 0 16 17" fill="none" xmlns="http://www.w3.org/2000/svg">
<g id="Vector">
<path id="Vector_2" d="M7.92661 6.88208V9.94176H12.1785C11.9918 10.9257 11.4315 11.7589 10.5912 12.3191L13.1553 14.3086C14.6492 12.9297 15.5111 10.9043 15.5111 8.49818C15.5111 7.93797 15.4608 7.39925 15.3674 6.88217L7.92661 6.88208Z" fill="#4285F4"/>
<path id="Vector_3" d="M3.49874 9.82227L2.92044 10.2649L0.873444 11.8594C2.17344 14.4378 4.83789 16.2191 7.92626 16.2191C10.0594 16.2191 11.8477 15.5152 13.1549 14.3086L10.5909 12.3191C9.887 12.7931 8.9892 13.0804 7.92626 13.0804C5.87213 13.0804 4.12687 11.6943 3.50197 9.82683L3.49874 9.82227Z" fill="#34A853"/>
<path id="Vector_4" d="M0.8735 4.77734C0.334855 5.84028 0.0260468 7.03975 0.0260468 8.31818C0.0260468 9.59661 0.334855 10.7961 0.8735 11.859C0.8735 11.8662 3.50228 9.81924 3.50228 9.81924C3.34427 9.34521 3.25087 8.84248 3.25087 8.3181C3.25087 7.79372 3.34427 7.29099 3.50228 6.81696L0.8735 4.77734Z" fill="#FBBC05"/>
<path id="Vector_5" d="M7.92642 3.5637C9.08998 3.5637 10.1242 3.9659 10.9502 4.7416L13.2126 2.4792C11.8408 1.20077 10.0596 0.417847 7.92642 0.417847C4.83805 0.417847 2.17344 2.19188 0.873444 4.77752L3.50214 6.81731C4.12696 4.94988 5.87229 3.5637 7.92642 3.5637Z" fill="#EA4335"/>
</g>
</svg>
