<svg width="17" height="16" viewBox="0 0 17 16" fill="none" xmlns="http://www.w3.org/2000/svg">
<g id="image-blur" clip-path="url(#clip0_162_18478)">
<g id="image-blur_2">
<path id="Vector" d="M8.49791 15.4275C12.6007 15.4275 15.9265 12.1016 15.9265 7.99889C15.9265 3.8962 12.6007 0.570312 8.49791 0.570312C4.39522 0.570312 1.06934 3.8962 1.06934 7.99889C1.06934 12.1016 4.39522 15.4275 8.49791 15.4275Z" stroke="black" stroke-linecap="round" stroke-linejoin="round"/>
<g id="Group 2626">
<path id="Vector_2" d="M6.83201 3.30915C6.75311 3.30915 6.68915 3.24519 6.68915 3.16629C6.68915 3.08739 6.75311 3.02344 6.83201 3.02344" stroke="black" stroke-linecap="round" stroke-linejoin="round"/>
<path id="Vector_3" d="M6.83228 3.30915C6.91118 3.30915 6.97513 3.24519 6.97513 3.16629C6.97513 3.08739 6.91118 3.02344 6.83228 3.02344" stroke="black" stroke-linecap="round" stroke-linejoin="round"/>
</g>
<g id="Group 2636">
<path id="Vector_4" d="M10.1653 3.30915C10.0864 3.30915 10.0225 3.24519 10.0225 3.16629C10.0225 3.08739 10.0864 3.02344 10.1653 3.02344" stroke="black" stroke-linecap="round" stroke-linejoin="round"/>
<path id="Vector_5" d="M10.1657 3.30915C10.2446 3.30915 10.3086 3.24519 10.3086 3.16629C10.3086 3.08739 10.2446 3.02344 10.1657 3.02344" stroke="black" stroke-linecap="round" stroke-linejoin="round"/>
</g>
<g id="Group 2637">
<path id="Vector_6" d="M6.83201 12.9759C6.75311 12.9759 6.68915 12.9119 6.68915 12.8331C6.68915 12.7542 6.75311 12.6902 6.83201 12.6902" stroke="black" stroke-linecap="round" stroke-linejoin="round"/>
<path id="Vector_7" d="M6.83228 12.9757C6.91118 12.9757 6.97513 12.9117 6.97513 12.8329C6.97513 12.754 6.91118 12.69 6.83228 12.69" stroke="black" stroke-linecap="round" stroke-linejoin="round"/>
</g>
<g id="Group 2639">
<path id="Vector_8" d="M3.66532 6.47595C3.58642 6.47595 3.52246 6.41199 3.52246 6.33309C3.52246 6.2542 3.58642 6.19023 3.66532 6.19023" stroke="black" stroke-linecap="round" stroke-linejoin="round"/>
<path id="Vector_9" d="M3.66571 6.47575C3.7446 6.47575 3.80857 6.41179 3.80857 6.33289C3.80857 6.254 3.7446 6.19003 3.66571 6.19003" stroke="black" stroke-linecap="round" stroke-linejoin="round"/>
</g>
<g id="Group 2640">
<path id="Vector_10" d="M3.66532 9.80915C3.58642 9.80915 3.52246 9.74519 3.52246 9.66629C3.52246 9.58739 3.58642 9.52344 3.66532 9.52344" stroke="black" stroke-linecap="round" stroke-linejoin="round"/>
<path id="Vector_11" d="M3.66571 9.80915C3.7446 9.80915 3.80857 9.74519 3.80857 9.66629C3.80857 9.58739 3.7446 9.52344 3.66571 9.52344" stroke="black" stroke-linecap="round" stroke-linejoin="round"/>
</g>
<g id="Group 2641">
<path id="Vector_12" d="M13.332 6.47595C13.2531 6.47595 13.1891 6.41199 13.1891 6.33309C13.1891 6.2542 13.2531 6.19023 13.332 6.19023" stroke="black" stroke-linecap="round" stroke-linejoin="round"/>
<path id="Vector_13" d="M13.3323 6.47575C13.4111 6.47575 13.4751 6.41179 13.4751 6.33289C13.4751 6.254 13.4111 6.19003 13.3323 6.19003" stroke="black" stroke-linecap="round" stroke-linejoin="round"/>
</g>
<g id="Group 2642">
<path id="Vector_14" d="M13.332 9.80915C13.2531 9.80915 13.1891 9.74519 13.1891 9.66629C13.1891 9.58739 13.2531 9.52344 13.332 9.52344" stroke="black" stroke-linecap="round" stroke-linejoin="round"/>
<path id="Vector_15" d="M13.3323 9.80915C13.4111 9.80915 13.4751 9.74519 13.4751 9.66629C13.4751 9.58739 13.4111 9.52344 13.3323 9.52344" stroke="black" stroke-linecap="round" stroke-linejoin="round"/>
</g>
<g id="Group 2638">
<path id="Vector_16" d="M10.1653 12.9759C10.0864 12.9759 10.0225 12.9119 10.0225 12.8331C10.0225 12.7542 10.0864 12.6902 10.1653 12.6902" stroke="black" stroke-linecap="round" stroke-linejoin="round"/>
<path id="Vector_17" d="M10.1657 12.9757C10.2446 12.9757 10.3086 12.9117 10.3086 12.8329C10.3086 12.754 10.2446 12.69 10.1657 12.69" stroke="black" stroke-linecap="round" stroke-linejoin="round"/>
</g>
<g id="Group 2649">
<path id="Vector_18" d="M6.78211 6.6183C6.62432 6.6183 6.4964 6.49038 6.4964 6.33259C6.4964 6.1748 6.62432 6.04688 6.78211 6.04688" stroke="black" stroke-linecap="round" stroke-linejoin="round"/>
<path id="Vector_19" d="M6.78296 6.6183C6.94075 6.6183 7.06867 6.49038 7.06867 6.33259C7.06867 6.1748 6.94075 6.04688 6.78296 6.04688" stroke="black" stroke-linecap="round" stroke-linejoin="round"/>
</g>
<g id="Group 2650">
<path id="Vector_20" d="M10.2352 6.6183C10.0774 6.6183 9.94952 6.49038 9.94952 6.33259C9.94952 6.1748 10.0774 6.04688 10.2352 6.04688" stroke="black" stroke-linecap="round" stroke-linejoin="round"/>
<path id="Vector_21" d="M10.2361 6.6183C10.3939 6.6183 10.5218 6.49038 10.5218 6.33259C10.5218 6.1748 10.3939 6.04688 10.2361 6.04688" stroke="black" stroke-linecap="round" stroke-linejoin="round"/>
</g>
<g id="Group 2651">
<path id="Vector_22" d="M6.78211 9.95151C6.62432 9.95151 6.4964 9.82359 6.4964 9.6658C6.4964 9.508 6.62432 9.38008 6.78211 9.38008" stroke="black" stroke-linecap="round" stroke-linejoin="round"/>
<path id="Vector_23" d="M6.78296 9.95171C6.94075 9.95171 7.06867 9.82379 7.06867 9.66599C7.06867 9.5082 6.94075 9.38028 6.78296 9.38028" stroke="black" stroke-linecap="round" stroke-linejoin="round"/>
</g>
<g id="Group 2652">
<path id="Vector_24" d="M10.2352 9.95151C10.0774 9.95151 9.94952 9.82359 9.94952 9.6658C9.94952 9.508 10.0774 9.38008 10.2352 9.38008" stroke="black" stroke-linecap="round" stroke-linejoin="round"/>
<path id="Vector_25" d="M10.2361 9.95171C10.3939 9.95171 10.5218 9.82379 10.5218 9.66599C10.5218 9.5082 10.3939 9.38028 10.2361 9.38028" stroke="black" stroke-linecap="round" stroke-linejoin="round"/>
</g>
</g>
</g>
<defs>
<clipPath id="clip0_162_18478">
<rect width="16" height="16" fill="white" transform="translate(0.499023)"/>
</clipPath>
</defs>
</svg>
