<svg width="169" height="42" viewBox="0 0 169 42" fill="none" xmlns="http://www.w3.org/2000/svg">
<mask id="path-1-outside-1_164_901" maskUnits="userSpaceOnUse" x="0" y="0" width="37" height="42" fill="black">
<rect fill="white" width="37" height="42"/>
<path fill-rule="evenodd" clip-rule="evenodd" d="M15.0705 4.46667C15.1689 4.63673 15.1105 4.85419 14.9402 4.95237L11.4171 6.98306V15.1058L18.4632 19.1672L25.5093 15.1058V6.98306L21.9863 4.95237C21.8159 4.85419 21.7576 4.63673 21.8559 4.46667C21.9543 4.29661 22.1721 4.23835 22.3424 4.33653L26.2216 6.5725V15.5164L18.4632 19.9883L10.7048 15.5164V6.5725L14.584 4.33653C14.7544 4.23835 14.9722 4.29661 15.0705 4.46667Z"/>
<path fill-rule="evenodd" clip-rule="evenodd" d="M28.4765 7.75556C28.5748 7.92562 28.5165 8.14307 28.3461 8.24126L21.122 12.4053V20.5281L28.1681 24.5894L35.2142 20.5281V12.5111H35.9264V20.9386L28.1681 25.4106L20.4097 20.9386V11.9947L27.99 7.62542C28.1603 7.52723 28.3781 7.5855 28.4765 7.75556Z"/>
<path fill-rule="evenodd" clip-rule="evenodd" d="M28.1681 18.3672L35.9264 22.8392V31.7831L32.0473 34.019C31.8769 34.1172 31.6591 34.059 31.5608 33.8889C31.4624 33.7188 31.5208 33.5014 31.6911 33.4032L35.2142 31.3725V23.2497L28.1681 19.1883L21.122 23.2497V31.3725L24.645 33.4032C24.8153 33.5014 24.8737 33.7188 24.7754 33.8889C24.677 34.059 24.4592 34.1172 24.2889 34.019L20.4097 31.7831V22.8392L28.1681 18.3672Z"/>
<path fill-rule="evenodd" clip-rule="evenodd" d="M8.75839 18.3672L16.5168 22.8392V31.7831L12.6376 34.019C12.4672 34.1172 12.2494 34.059 12.1511 33.8889C12.0527 33.7188 12.1111 33.5014 12.2814 33.4032L15.8045 31.3725V23.2497L8.75839 19.1883L1.71228 23.2497V31.3725L5.23533 33.4032C5.40567 33.5014 5.46404 33.7188 5.36569 33.8889C5.26735 34.059 5.04953 34.1172 4.87919 34.019L1 31.7831V22.8392L8.75839 18.3672Z"/>
<path fill-rule="evenodd" clip-rule="evenodd" d="M8.45 7.75556C8.35166 7.92562 8.41002 8.14307 8.58036 8.24126L15.8045 12.4053V20.5281L8.75843 24.5894L1.71233 20.5281V12.5111H1.00004V20.9386L8.75843 25.4106L16.5168 20.9386V11.9947L8.9365 7.62542C8.76616 7.52723 8.54835 7.5855 8.45 7.75556Z"/>
<path d="M18.1071 3.22222C18.1071 3.02585 18.2666 2.86667 18.4632 2.86667C18.6599 2.86667 18.8194 3.02585 18.8194 3.22222V41H18.1071V3.22222Z"/>
<path fill-rule="evenodd" clip-rule="evenodd" d="M16.5179 28.5556H15.8056V41H16.5179V28.5556Z"/>
<path fill-rule="evenodd" clip-rule="evenodd" d="M21.1218 28.5556H20.4095V41H21.1218V28.5556Z"/>
<path d="M35.7326 31.3111L35.3819 31.93L1.41269 12.7428L1.76343 12.1239L35.7326 31.3111Z"/>
<path d="M1.62325 31.9333L1.2725 31.3144L35.213 12.1434L35.5637 12.7623L1.62325 31.9333Z"/>
<path d="M35.9275 12.5111C35.9275 12.7811 35.7083 13 35.4378 13C35.1674 13 34.9482 12.7811 34.9482 12.5111C34.9482 12.2411 35.1674 12.0222 35.4378 12.0222C35.7083 12.0222 35.9275 12.2411 35.9275 12.5111Z"/>
<path d="M1.99173 12.5111C1.99173 12.7811 1.77249 13 1.50204 13C1.23159 13 1.01235 12.7811 1.01235 12.5111C1.01235 12.2411 1.23159 12.0222 1.50204 12.0222C1.77249 12.0222 1.99173 12.2411 1.99173 12.5111Z"/>
<path fill-rule="evenodd" clip-rule="evenodd" d="M7.95709 8.02222C8.25213 8.02222 8.4913 7.78344 8.4913 7.48889C8.4913 7.19434 8.25213 6.95556 7.95709 6.95556C7.66206 6.95556 7.42288 7.19434 7.42288 7.48889C7.42288 7.78344 7.66206 8.02222 7.95709 8.02222ZM7.95709 8.73333C8.64551 8.73333 9.20359 8.17618 9.20359 7.48889C9.20359 6.8016 8.64551 6.24444 7.95709 6.24444C7.26867 6.24444 6.7106 6.8016 6.7106 7.48889C6.7106 8.17618 7.26867 8.73333 7.95709 8.73333Z"/>
<path fill-rule="evenodd" clip-rule="evenodd" d="M18.4632 2.77778C18.7583 2.77778 18.9975 2.539 18.9975 2.24444C18.9975 1.94989 18.7583 1.71111 18.4632 1.71111C18.1682 1.71111 17.929 1.94989 17.929 2.24444C17.929 2.539 18.1682 2.77778 18.4632 2.77778ZM18.4632 3.48889C19.1517 3.48889 19.7097 2.93173 19.7097 2.24444C19.7097 1.55716 19.1517 1 18.4632 1C17.7748 1 17.2168 1.55716 17.2168 2.24444C17.2168 2.93173 17.7748 3.48889 18.4632 3.48889Z"/>
<path fill-rule="evenodd" clip-rule="evenodd" d="M15.5251 4.64444C15.8201 4.64444 16.0593 4.40566 16.0593 4.11111C16.0593 3.81656 15.8201 3.57778 15.5251 3.57778C15.23 3.57778 14.9909 3.81656 14.9909 4.11111C14.9909 4.40566 15.23 4.64444 15.5251 4.64444ZM15.5251 5.35556C16.2135 5.35556 16.7716 4.7984 16.7716 4.11111C16.7716 3.42382 16.2135 2.86667 15.5251 2.86667C14.8367 2.86667 14.2786 3.42382 14.2786 4.11111C14.2786 4.7984 14.8367 5.35556 15.5251 5.35556Z"/>
<path fill-rule="evenodd" clip-rule="evenodd" d="M21.4014 4.64444C21.6964 4.64444 21.9356 4.40566 21.9356 4.11111C21.9356 3.81656 21.6964 3.57778 21.4014 3.57778C21.1064 3.57778 20.8672 3.81656 20.8672 4.11111C20.8672 4.40566 21.1064 4.64444 21.4014 4.64444ZM21.4014 5.35556C22.0898 5.35556 22.6479 4.7984 22.6479 4.11111C22.6479 3.42382 22.0898 2.86667 21.4014 2.86667C20.713 2.86667 20.1549 3.42382 20.1549 4.11111C20.1549 4.7984 20.713 5.35556 21.4014 5.35556Z"/>
<path fill-rule="evenodd" clip-rule="evenodd" d="M28.9694 8.02222C29.2644 8.02222 29.5036 7.78344 29.5036 7.48889C29.5036 7.19434 29.2644 6.95556 28.9694 6.95556C28.6744 6.95556 28.4352 7.19434 28.4352 7.48889C28.4352 7.78344 28.6744 8.02222 28.9694 8.02222ZM28.9694 8.73333C29.6578 8.73333 30.2159 8.17618 30.2159 7.48889C30.2159 6.8016 29.6578 6.24444 28.9694 6.24444C28.281 6.24444 27.7229 6.8016 27.7229 7.48889C27.7229 8.17618 28.281 8.73333 28.9694 8.73333Z"/>
<path fill-rule="evenodd" clip-rule="evenodd" d="M25.319 34.5111C25.614 34.5111 25.8532 34.2723 25.8532 33.9778C25.8532 33.6832 25.614 33.4444 25.319 33.4444C25.0239 33.4444 24.7847 33.6832 24.7847 33.9778C24.7847 34.2723 25.0239 34.5111 25.319 34.5111ZM25.319 35.2222C26.0074 35.2222 26.5655 34.6651 26.5655 33.9778C26.5655 33.2905 26.0074 32.7333 25.319 32.7333C24.6305 32.7333 24.0725 33.2905 24.0725 33.9778C24.0725 34.6651 24.6305 35.2222 25.319 35.2222Z"/>
<path fill-rule="evenodd" clip-rule="evenodd" d="M5.90928 34.5111C6.20432 34.5111 6.44349 34.2723 6.44349 33.9778C6.44349 33.6832 6.20432 33.4444 5.90928 33.4444C5.61425 33.4444 5.37507 33.6832 5.37507 33.9778C5.37507 34.2723 5.61425 34.5111 5.90928 34.5111ZM5.90928 35.2222C6.5977 35.2222 7.15578 34.6651 7.15578 33.9778C7.15578 33.2905 6.5977 32.7333 5.90928 32.7333C5.22086 32.7333 4.66279 33.2905 4.66279 33.9778C4.66279 34.6651 5.22086 35.2222 5.90928 35.2222Z"/>
<path fill-rule="evenodd" clip-rule="evenodd" d="M31.0172 34.5111C31.3122 34.5111 31.5514 34.2723 31.5514 33.9778C31.5514 33.6832 31.3122 33.4444 31.0172 33.4444C30.7222 33.4444 30.483 33.6832 30.483 33.9778C30.483 34.2723 30.7222 34.5111 31.0172 34.5111ZM31.0172 35.2222C31.7056 35.2222 32.2637 34.6651 32.2637 33.9778C32.2637 33.2905 31.7056 32.7333 31.0172 32.7333C30.3288 32.7333 29.7707 33.2905 29.7707 33.9778C29.7707 34.6651 30.3288 35.2222 31.0172 35.2222Z"/>
<path fill-rule="evenodd" clip-rule="evenodd" d="M11.6075 34.5111C11.9026 34.5111 12.1417 34.2723 12.1417 33.9778C12.1417 33.6832 11.9026 33.4444 11.6075 33.4444C11.3125 33.4444 11.0733 33.6832 11.0733 33.9778C11.0733 34.2723 11.3125 34.5111 11.6075 34.5111ZM11.6075 35.2222C12.296 35.2222 12.854 34.6651 12.854 33.9778C12.854 33.2905 12.296 32.7333 11.6075 32.7333C10.9191 32.7333 10.361 33.2905 10.361 33.9778C10.361 34.6651 10.9191 35.2222 11.6075 35.2222Z"/>
</mask>
<path fill-rule="evenodd" clip-rule="evenodd" d="M15.0705 4.46667C15.1689 4.63673 15.1105 4.85419 14.9402 4.95237L11.4171 6.98306V15.1058L18.4632 19.1672L25.5093 15.1058V6.98306L21.9863 4.95237C21.8159 4.85419 21.7576 4.63673 21.8559 4.46667C21.9543 4.29661 22.1721 4.23835 22.3424 4.33653L26.2216 6.5725V15.5164L18.4632 19.9883L10.7048 15.5164V6.5725L14.584 4.33653C14.7544 4.23835 14.9722 4.29661 15.0705 4.46667Z" fill="url(#paint0_linear_164_901)" style=""/>
<path fill-rule="evenodd" clip-rule="evenodd" d="M28.4765 7.75556C28.5748 7.92562 28.5165 8.14307 28.3461 8.24126L21.122 12.4053V20.5281L28.1681 24.5894L35.2142 20.5281V12.5111H35.9264V20.9386L28.1681 25.4106L20.4097 20.9386V11.9947L27.99 7.62542C28.1603 7.52723 28.3781 7.5855 28.4765 7.75556Z" fill="url(#paint1_linear_164_901)" style=""/>
<path fill-rule="evenodd" clip-rule="evenodd" d="M28.1681 18.3672L35.9264 22.8392V31.7831L32.0473 34.019C31.8769 34.1172 31.6591 34.059 31.5608 33.8889C31.4624 33.7188 31.5208 33.5014 31.6911 33.4032L35.2142 31.3725V23.2497L28.1681 19.1883L21.122 23.2497V31.3725L24.645 33.4032C24.8153 33.5014 24.8737 33.7188 24.7754 33.8889C24.677 34.059 24.4592 34.1172 24.2889 34.019L20.4097 31.7831V22.8392L28.1681 18.3672Z" fill="url(#paint2_linear_164_901)" style=""/>
<path fill-rule="evenodd" clip-rule="evenodd" d="M8.75839 18.3672L16.5168 22.8392V31.7831L12.6376 34.019C12.4672 34.1172 12.2494 34.059 12.1511 33.8889C12.0527 33.7188 12.1111 33.5014 12.2814 33.4032L15.8045 31.3725V23.2497L8.75839 19.1883L1.71228 23.2497V31.3725L5.23533 33.4032C5.40567 33.5014 5.46404 33.7188 5.36569 33.8889C5.26735 34.059 5.04953 34.1172 4.87919 34.019L1 31.7831V22.8392L8.75839 18.3672Z" fill="url(#paint3_linear_164_901)" style=""/>
<path fill-rule="evenodd" clip-rule="evenodd" d="M8.45 7.75556C8.35166 7.92562 8.41002 8.14307 8.58036 8.24126L15.8045 12.4053V20.5281L8.75843 24.5894L1.71233 20.5281V12.5111H1.00004V20.9386L8.75843 25.4106L16.5168 20.9386V11.9947L8.9365 7.62542C8.76616 7.52723 8.54835 7.5855 8.45 7.75556Z" fill="url(#paint4_linear_164_901)" style=""/>
<path d="M18.1071 3.22222C18.1071 3.02585 18.2666 2.86667 18.4632 2.86667C18.6599 2.86667 18.8194 3.02585 18.8194 3.22222V41H18.1071V3.22222Z" fill="url(#paint5_linear_164_901)" style=""/>
<path fill-rule="evenodd" clip-rule="evenodd" d="M16.5179 28.5556H15.8056V41H16.5179V28.5556Z" fill="url(#paint6_linear_164_901)" style=""/>
<path fill-rule="evenodd" clip-rule="evenodd" d="M21.1218 28.5556H20.4095V41H21.1218V28.5556Z" fill="url(#paint7_linear_164_901)" style=""/>
<path d="M35.7326 31.3111L35.3819 31.93L1.41269 12.7428L1.76343 12.1239L35.7326 31.3111Z" fill="url(#paint8_linear_164_901)" style=""/>
<path d="M1.62325 31.9333L1.2725 31.3144L35.213 12.1434L35.5637 12.7623L1.62325 31.9333Z" fill="url(#paint9_linear_164_901)" style=""/>
<path d="M35.9275 12.5111C35.9275 12.7811 35.7083 13 35.4378 13C35.1674 13 34.9482 12.7811 34.9482 12.5111C34.9482 12.2411 35.1674 12.0222 35.4378 12.0222C35.7083 12.0222 35.9275 12.2411 35.9275 12.5111Z" fill="url(#paint10_linear_164_901)" style=""/>
<path d="M1.99173 12.5111C1.99173 12.7811 1.77249 13 1.50204 13C1.23159 13 1.01235 12.7811 1.01235 12.5111C1.01235 12.2411 1.23159 12.0222 1.50204 12.0222C1.77249 12.0222 1.99173 12.2411 1.99173 12.5111Z" fill="url(#paint11_linear_164_901)" style=""/>
<path fill-rule="evenodd" clip-rule="evenodd" d="M7.95709 8.02222C8.25213 8.02222 8.4913 7.78344 8.4913 7.48889C8.4913 7.19434 8.25213 6.95556 7.95709 6.95556C7.66206 6.95556 7.42288 7.19434 7.42288 7.48889C7.42288 7.78344 7.66206 8.02222 7.95709 8.02222ZM7.95709 8.73333C8.64551 8.73333 9.20359 8.17618 9.20359 7.48889C9.20359 6.8016 8.64551 6.24444 7.95709 6.24444C7.26867 6.24444 6.7106 6.8016 6.7106 7.48889C6.7106 8.17618 7.26867 8.73333 7.95709 8.73333Z" fill="url(#paint12_linear_164_901)" style=""/>
<path fill-rule="evenodd" clip-rule="evenodd" d="M18.4632 2.77778C18.7583 2.77778 18.9975 2.539 18.9975 2.24444C18.9975 1.94989 18.7583 1.71111 18.4632 1.71111C18.1682 1.71111 17.929 1.94989 17.929 2.24444C17.929 2.539 18.1682 2.77778 18.4632 2.77778ZM18.4632 3.48889C19.1517 3.48889 19.7097 2.93173 19.7097 2.24444C19.7097 1.55716 19.1517 1 18.4632 1C17.7748 1 17.2168 1.55716 17.2168 2.24444C17.2168 2.93173 17.7748 3.48889 18.4632 3.48889Z" fill="url(#paint13_linear_164_901)" style=""/>
<path fill-rule="evenodd" clip-rule="evenodd" d="M15.5251 4.64444C15.8201 4.64444 16.0593 4.40566 16.0593 4.11111C16.0593 3.81656 15.8201 3.57778 15.5251 3.57778C15.23 3.57778 14.9909 3.81656 14.9909 4.11111C14.9909 4.40566 15.23 4.64444 15.5251 4.64444ZM15.5251 5.35556C16.2135 5.35556 16.7716 4.7984 16.7716 4.11111C16.7716 3.42382 16.2135 2.86667 15.5251 2.86667C14.8367 2.86667 14.2786 3.42382 14.2786 4.11111C14.2786 4.7984 14.8367 5.35556 15.5251 5.35556Z" fill="url(#paint14_linear_164_901)" style=""/>
<path fill-rule="evenodd" clip-rule="evenodd" d="M21.4014 4.64444C21.6964 4.64444 21.9356 4.40566 21.9356 4.11111C21.9356 3.81656 21.6964 3.57778 21.4014 3.57778C21.1064 3.57778 20.8672 3.81656 20.8672 4.11111C20.8672 4.40566 21.1064 4.64444 21.4014 4.64444ZM21.4014 5.35556C22.0898 5.35556 22.6479 4.7984 22.6479 4.11111C22.6479 3.42382 22.0898 2.86667 21.4014 2.86667C20.713 2.86667 20.1549 3.42382 20.1549 4.11111C20.1549 4.7984 20.713 5.35556 21.4014 5.35556Z" fill="url(#paint15_linear_164_901)" style=""/>
<path fill-rule="evenodd" clip-rule="evenodd" d="M28.9694 8.02222C29.2644 8.02222 29.5036 7.78344 29.5036 7.48889C29.5036 7.19434 29.2644 6.95556 28.9694 6.95556C28.6744 6.95556 28.4352 7.19434 28.4352 7.48889C28.4352 7.78344 28.6744 8.02222 28.9694 8.02222ZM28.9694 8.73333C29.6578 8.73333 30.2159 8.17618 30.2159 7.48889C30.2159 6.8016 29.6578 6.24444 28.9694 6.24444C28.281 6.24444 27.7229 6.8016 27.7229 7.48889C27.7229 8.17618 28.281 8.73333 28.9694 8.73333Z" fill="url(#paint16_linear_164_901)" style=""/>
<path fill-rule="evenodd" clip-rule="evenodd" d="M25.319 34.5111C25.614 34.5111 25.8532 34.2723 25.8532 33.9778C25.8532 33.6832 25.614 33.4444 25.319 33.4444C25.0239 33.4444 24.7847 33.6832 24.7847 33.9778C24.7847 34.2723 25.0239 34.5111 25.319 34.5111ZM25.319 35.2222C26.0074 35.2222 26.5655 34.6651 26.5655 33.9778C26.5655 33.2905 26.0074 32.7333 25.319 32.7333C24.6305 32.7333 24.0725 33.2905 24.0725 33.9778C24.0725 34.6651 24.6305 35.2222 25.319 35.2222Z" fill="url(#paint17_linear_164_901)" style=""/>
<path fill-rule="evenodd" clip-rule="evenodd" d="M5.90928 34.5111C6.20432 34.5111 6.44349 34.2723 6.44349 33.9778C6.44349 33.6832 6.20432 33.4444 5.90928 33.4444C5.61425 33.4444 5.37507 33.6832 5.37507 33.9778C5.37507 34.2723 5.61425 34.5111 5.90928 34.5111ZM5.90928 35.2222C6.5977 35.2222 7.15578 34.6651 7.15578 33.9778C7.15578 33.2905 6.5977 32.7333 5.90928 32.7333C5.22086 32.7333 4.66279 33.2905 4.66279 33.9778C4.66279 34.6651 5.22086 35.2222 5.90928 35.2222Z" fill="url(#paint18_linear_164_901)" style=""/>
<path fill-rule="evenodd" clip-rule="evenodd" d="M31.0172 34.5111C31.3122 34.5111 31.5514 34.2723 31.5514 33.9778C31.5514 33.6832 31.3122 33.4444 31.0172 33.4444C30.7222 33.4444 30.483 33.6832 30.483 33.9778C30.483 34.2723 30.7222 34.5111 31.0172 34.5111ZM31.0172 35.2222C31.7056 35.2222 32.2637 34.6651 32.2637 33.9778C32.2637 33.2905 31.7056 32.7333 31.0172 32.7333C30.3288 32.7333 29.7707 33.2905 29.7707 33.9778C29.7707 34.6651 30.3288 35.2222 31.0172 35.2222Z" fill="url(#paint19_linear_164_901)" style=""/>
<path fill-rule="evenodd" clip-rule="evenodd" d="M11.6075 34.5111C11.9026 34.5111 12.1417 34.2723 12.1417 33.9778C12.1417 33.6832 11.9026 33.4444 11.6075 33.4444C11.3125 33.4444 11.0733 33.6832 11.0733 33.9778C11.0733 34.2723 11.3125 34.5111 11.6075 34.5111ZM11.6075 35.2222C12.296 35.2222 12.854 34.6651 12.854 33.9778C12.854 33.2905 12.296 32.7333 11.6075 32.7333C10.9191 32.7333 10.361 33.2905 10.361 33.9778C10.361 34.6651 10.9191 35.2222 11.6075 35.2222Z" fill="url(#paint20_linear_164_901)" style=""/>
<path fill-rule="evenodd" clip-rule="evenodd" d="M15.0705 4.46667C15.1689 4.63673 15.1105 4.85419 14.9402 4.95237L11.4171 6.98306V15.1058L18.4632 19.1672L25.5093 15.1058V6.98306L21.9863 4.95237C21.8159 4.85419 21.7576 4.63673 21.8559 4.46667C21.9543 4.29661 22.1721 4.23835 22.3424 4.33653L26.2216 6.5725V15.5164L18.4632 19.9883L10.7048 15.5164V6.5725L14.584 4.33653C14.7544 4.23835 14.9722 4.29661 15.0705 4.46667Z" stroke="url(#paint21_linear_164_901)" style="" stroke-width="0.466667" mask="url(#path-1-outside-1_164_901)"/>
<path fill-rule="evenodd" clip-rule="evenodd" d="M28.4765 7.75556C28.5748 7.92562 28.5165 8.14307 28.3461 8.24126L21.122 12.4053V20.5281L28.1681 24.5894L35.2142 20.5281V12.5111H35.9264V20.9386L28.1681 25.4106L20.4097 20.9386V11.9947L27.99 7.62542C28.1603 7.52723 28.3781 7.5855 28.4765 7.75556Z" stroke="url(#paint22_linear_164_901)" style="" stroke-width="0.466667" mask="url(#path-1-outside-1_164_901)"/>
<path fill-rule="evenodd" clip-rule="evenodd" d="M28.1681 18.3672L35.9264 22.8392V31.7831L32.0473 34.019C31.8769 34.1172 31.6591 34.059 31.5608 33.8889C31.4624 33.7188 31.5208 33.5014 31.6911 33.4032L35.2142 31.3725V23.2497L28.1681 19.1883L21.122 23.2497V31.3725L24.645 33.4032C24.8153 33.5014 24.8737 33.7188 24.7754 33.8889C24.677 34.059 24.4592 34.1172 24.2889 34.019L20.4097 31.7831V22.8392L28.1681 18.3672Z" stroke="url(#paint23_linear_164_901)" style="" stroke-width="0.466667" mask="url(#path-1-outside-1_164_901)"/>
<path fill-rule="evenodd" clip-rule="evenodd" d="M8.75839 18.3672L16.5168 22.8392V31.7831L12.6376 34.019C12.4672 34.1172 12.2494 34.059 12.1511 33.8889C12.0527 33.7188 12.1111 33.5014 12.2814 33.4032L15.8045 31.3725V23.2497L8.75839 19.1883L1.71228 23.2497V31.3725L5.23533 33.4032C5.40567 33.5014 5.46404 33.7188 5.36569 33.8889C5.26735 34.059 5.04953 34.1172 4.87919 34.019L1 31.7831V22.8392L8.75839 18.3672Z" stroke="url(#paint24_linear_164_901)" style="" stroke-width="0.466667" mask="url(#path-1-outside-1_164_901)"/>
<path fill-rule="evenodd" clip-rule="evenodd" d="M8.45 7.75556C8.35166 7.92562 8.41002 8.14307 8.58036 8.24126L15.8045 12.4053V20.5281L8.75843 24.5894L1.71233 20.5281V12.5111H1.00004V20.9386L8.75843 25.4106L16.5168 20.9386V11.9947L8.9365 7.62542C8.76616 7.52723 8.54835 7.5855 8.45 7.75556Z" stroke="url(#paint25_linear_164_901)" style="" stroke-width="0.466667" mask="url(#path-1-outside-1_164_901)"/>
<path d="M18.1071 3.22222C18.1071 3.02585 18.2666 2.86667 18.4632 2.86667C18.6599 2.86667 18.8194 3.02585 18.8194 3.22222V41H18.1071V3.22222Z" stroke="url(#paint26_linear_164_901)" style="" stroke-width="0.466667" mask="url(#path-1-outside-1_164_901)"/>
<path fill-rule="evenodd" clip-rule="evenodd" d="M16.5179 28.5556H15.8056V41H16.5179V28.5556Z" stroke="url(#paint27_linear_164_901)" style="" stroke-width="0.466667" mask="url(#path-1-outside-1_164_901)"/>
<path fill-rule="evenodd" clip-rule="evenodd" d="M21.1218 28.5556H20.4095V41H21.1218V28.5556Z" stroke="url(#paint28_linear_164_901)" style="" stroke-width="0.466667" mask="url(#path-1-outside-1_164_901)"/>
<path d="M35.7326 31.3111L35.3819 31.93L1.41269 12.7428L1.76343 12.1239L35.7326 31.3111Z" stroke="url(#paint29_linear_164_901)" style="" stroke-width="0.466667" mask="url(#path-1-outside-1_164_901)"/>
<path d="M1.62325 31.9333L1.2725 31.3144L35.213 12.1434L35.5637 12.7623L1.62325 31.9333Z" stroke="url(#paint30_linear_164_901)" style="" stroke-width="0.466667" mask="url(#path-1-outside-1_164_901)"/>
<path d="M35.9275 12.5111C35.9275 12.7811 35.7083 13 35.4378 13C35.1674 13 34.9482 12.7811 34.9482 12.5111C34.9482 12.2411 35.1674 12.0222 35.4378 12.0222C35.7083 12.0222 35.9275 12.2411 35.9275 12.5111Z" stroke="url(#paint31_linear_164_901)" style="" stroke-width="0.466667" mask="url(#path-1-outside-1_164_901)"/>
<path d="M1.99173 12.5111C1.99173 12.7811 1.77249 13 1.50204 13C1.23159 13 1.01235 12.7811 1.01235 12.5111C1.01235 12.2411 1.23159 12.0222 1.50204 12.0222C1.77249 12.0222 1.99173 12.2411 1.99173 12.5111Z" stroke="url(#paint32_linear_164_901)" style="" stroke-width="0.466667" mask="url(#path-1-outside-1_164_901)"/>
<path fill-rule="evenodd" clip-rule="evenodd" d="M7.95709 8.02222C8.25213 8.02222 8.4913 7.78344 8.4913 7.48889C8.4913 7.19434 8.25213 6.95556 7.95709 6.95556C7.66206 6.95556 7.42288 7.19434 7.42288 7.48889C7.42288 7.78344 7.66206 8.02222 7.95709 8.02222ZM7.95709 8.73333C8.64551 8.73333 9.20359 8.17618 9.20359 7.48889C9.20359 6.8016 8.64551 6.24444 7.95709 6.24444C7.26867 6.24444 6.7106 6.8016 6.7106 7.48889C6.7106 8.17618 7.26867 8.73333 7.95709 8.73333Z" stroke="url(#paint33_linear_164_901)" style="" stroke-width="0.466667" mask="url(#path-1-outside-1_164_901)"/>
<path fill-rule="evenodd" clip-rule="evenodd" d="M18.4632 2.77778C18.7583 2.77778 18.9975 2.539 18.9975 2.24444C18.9975 1.94989 18.7583 1.71111 18.4632 1.71111C18.1682 1.71111 17.929 1.94989 17.929 2.24444C17.929 2.539 18.1682 2.77778 18.4632 2.77778ZM18.4632 3.48889C19.1517 3.48889 19.7097 2.93173 19.7097 2.24444C19.7097 1.55716 19.1517 1 18.4632 1C17.7748 1 17.2168 1.55716 17.2168 2.24444C17.2168 2.93173 17.7748 3.48889 18.4632 3.48889Z" stroke="url(#paint34_linear_164_901)" style="" stroke-width="0.466667" mask="url(#path-1-outside-1_164_901)"/>
<path fill-rule="evenodd" clip-rule="evenodd" d="M15.5251 4.64444C15.8201 4.64444 16.0593 4.40566 16.0593 4.11111C16.0593 3.81656 15.8201 3.57778 15.5251 3.57778C15.23 3.57778 14.9909 3.81656 14.9909 4.11111C14.9909 4.40566 15.23 4.64444 15.5251 4.64444ZM15.5251 5.35556C16.2135 5.35556 16.7716 4.7984 16.7716 4.11111C16.7716 3.42382 16.2135 2.86667 15.5251 2.86667C14.8367 2.86667 14.2786 3.42382 14.2786 4.11111C14.2786 4.7984 14.8367 5.35556 15.5251 5.35556Z" stroke="url(#paint35_linear_164_901)" style="" stroke-width="0.466667" mask="url(#path-1-outside-1_164_901)"/>
<path fill-rule="evenodd" clip-rule="evenodd" d="M21.4014 4.64444C21.6964 4.64444 21.9356 4.40566 21.9356 4.11111C21.9356 3.81656 21.6964 3.57778 21.4014 3.57778C21.1064 3.57778 20.8672 3.81656 20.8672 4.11111C20.8672 4.40566 21.1064 4.64444 21.4014 4.64444ZM21.4014 5.35556C22.0898 5.35556 22.6479 4.7984 22.6479 4.11111C22.6479 3.42382 22.0898 2.86667 21.4014 2.86667C20.713 2.86667 20.1549 3.42382 20.1549 4.11111C20.1549 4.7984 20.713 5.35556 21.4014 5.35556Z" stroke="url(#paint36_linear_164_901)" style="" stroke-width="0.466667" mask="url(#path-1-outside-1_164_901)"/>
<path fill-rule="evenodd" clip-rule="evenodd" d="M28.9694 8.02222C29.2644 8.02222 29.5036 7.78344 29.5036 7.48889C29.5036 7.19434 29.2644 6.95556 28.9694 6.95556C28.6744 6.95556 28.4352 7.19434 28.4352 7.48889C28.4352 7.78344 28.6744 8.02222 28.9694 8.02222ZM28.9694 8.73333C29.6578 8.73333 30.2159 8.17618 30.2159 7.48889C30.2159 6.8016 29.6578 6.24444 28.9694 6.24444C28.281 6.24444 27.7229 6.8016 27.7229 7.48889C27.7229 8.17618 28.281 8.73333 28.9694 8.73333Z" stroke="url(#paint37_linear_164_901)" style="" stroke-width="0.466667" mask="url(#path-1-outside-1_164_901)"/>
<path fill-rule="evenodd" clip-rule="evenodd" d="M25.319 34.5111C25.614 34.5111 25.8532 34.2723 25.8532 33.9778C25.8532 33.6832 25.614 33.4444 25.319 33.4444C25.0239 33.4444 24.7847 33.6832 24.7847 33.9778C24.7847 34.2723 25.0239 34.5111 25.319 34.5111ZM25.319 35.2222C26.0074 35.2222 26.5655 34.6651 26.5655 33.9778C26.5655 33.2905 26.0074 32.7333 25.319 32.7333C24.6305 32.7333 24.0725 33.2905 24.0725 33.9778C24.0725 34.6651 24.6305 35.2222 25.319 35.2222Z" stroke="url(#paint38_linear_164_901)" style="" stroke-width="0.466667" mask="url(#path-1-outside-1_164_901)"/>
<path fill-rule="evenodd" clip-rule="evenodd" d="M5.90928 34.5111C6.20432 34.5111 6.44349 34.2723 6.44349 33.9778C6.44349 33.6832 6.20432 33.4444 5.90928 33.4444C5.61425 33.4444 5.37507 33.6832 5.37507 33.9778C5.37507 34.2723 5.61425 34.5111 5.90928 34.5111ZM5.90928 35.2222C6.5977 35.2222 7.15578 34.6651 7.15578 33.9778C7.15578 33.2905 6.5977 32.7333 5.90928 32.7333C5.22086 32.7333 4.66279 33.2905 4.66279 33.9778C4.66279 34.6651 5.22086 35.2222 5.90928 35.2222Z" stroke="url(#paint39_linear_164_901)" style="" stroke-width="0.466667" mask="url(#path-1-outside-1_164_901)"/>
<path fill-rule="evenodd" clip-rule="evenodd" d="M31.0172 34.5111C31.3122 34.5111 31.5514 34.2723 31.5514 33.9778C31.5514 33.6832 31.3122 33.4444 31.0172 33.4444C30.7222 33.4444 30.483 33.6832 30.483 33.9778C30.483 34.2723 30.7222 34.5111 31.0172 34.5111ZM31.0172 35.2222C31.7056 35.2222 32.2637 34.6651 32.2637 33.9778C32.2637 33.2905 31.7056 32.7333 31.0172 32.7333C30.3288 32.7333 29.7707 33.2905 29.7707 33.9778C29.7707 34.6651 30.3288 35.2222 31.0172 35.2222Z" stroke="url(#paint40_linear_164_901)" style="" stroke-width="0.466667" mask="url(#path-1-outside-1_164_901)"/>
<path fill-rule="evenodd" clip-rule="evenodd" d="M11.6075 34.5111C11.9026 34.5111 12.1417 34.2723 12.1417 33.9778C12.1417 33.6832 11.9026 33.4444 11.6075 33.4444C11.3125 33.4444 11.0733 33.6832 11.0733 33.9778C11.0733 34.2723 11.3125 34.5111 11.6075 34.5111ZM11.6075 35.2222C12.296 35.2222 12.854 34.6651 12.854 33.9778C12.854 33.2905 12.296 32.7333 11.6075 32.7333C10.9191 32.7333 10.361 33.2905 10.361 33.9778C10.361 34.6651 10.9191 35.2222 11.6075 35.2222Z" stroke="url(#paint41_linear_164_901)" style="" stroke-width="0.466667" mask="url(#path-1-outside-1_164_901)"/>
<path d="M45.8989 31V11.928H52.8365C54.1165 11.928 55.2429 12.1669 56.2157 12.6448C57.1885 13.1056 57.948 13.7883 58.4941 14.6928C59.0573 15.5803 59.3389 16.6469 59.3389 17.8928C59.3389 19.2069 59.0061 20.3333 58.3405 21.272C57.692 22.2107 56.8131 22.8933 55.7037 23.32L60.1069 31H56.6765L51.9917 22.68L53.9629 23.832H48.9197V31H45.8989ZM48.9197 21.144H52.8877C53.5875 21.144 54.1933 21.0075 54.7053 20.7344C55.2173 20.4613 55.6099 20.0859 55.8829 19.608C56.1731 19.1131 56.3181 18.5328 56.3181 17.8672C56.3181 17.2016 56.1731 16.6299 55.8829 16.152C55.6099 15.6571 55.2173 15.2816 54.7053 15.0256C54.1933 14.7525 53.5875 14.616 52.8877 14.616H48.9197V21.144ZM68.2739 31.3072C66.9427 31.3072 65.7225 30.9915 64.6131 30.36C63.5209 29.7285 62.6505 28.8667 62.0019 27.7744C61.3534 26.6821 61.0291 25.4448 61.0291 24.0624C61.0291 22.6629 61.3534 21.4256 62.0019 20.3504C62.6505 19.2581 63.5209 18.4048 64.6131 17.7904C65.7054 17.1589 66.9257 16.8432 68.2739 16.8432C69.6393 16.8432 70.8595 17.1589 71.9347 17.7904C73.027 18.4048 73.8889 19.2581 74.5203 20.3504C75.1689 21.4256 75.4931 22.6629 75.4931 24.0624C75.4931 25.4619 75.1689 26.7077 74.5203 27.8C73.8718 28.8923 73.0014 29.7541 71.9091 30.3856C70.8169 31 69.6051 31.3072 68.2739 31.3072ZM68.2739 28.6192C69.0931 28.6192 69.8185 28.4229 70.4499 28.0304C71.0814 27.6379 71.5763 27.1003 71.9347 26.4176C72.3102 25.7179 72.4979 24.9328 72.4979 24.0624C72.4979 23.192 72.3102 22.4155 71.9347 21.7328C71.5763 21.0501 71.0814 20.5125 70.4499 20.12C69.8185 19.7275 69.0931 19.5312 68.2739 19.5312C67.4718 19.5312 66.7465 19.7275 66.0979 20.12C65.4665 20.5125 64.963 21.0501 64.5875 21.7328C64.2291 22.4155 64.0499 23.192 64.0499 24.0624C64.0499 24.9328 64.2291 25.7179 64.5875 26.4176C64.963 27.1003 65.4665 27.6379 66.0979 28.0304C66.7465 28.4229 67.4718 28.6192 68.2739 28.6192ZM78.3173 31V11.6208H81.2101V31H78.3173ZM91.0947 31.3072C89.7123 31.3072 88.4835 30.9915 87.4083 30.36C86.3502 29.7115 85.5225 28.8411 84.9251 27.7488C84.3278 26.6395 84.0291 25.4021 84.0291 24.0368C84.0291 22.6373 84.3278 21.4 84.9251 20.3248C85.5395 19.2496 86.3587 18.4048 87.3827 17.7904C88.4067 17.1589 89.5673 16.8432 90.8643 16.8432C91.9054 16.8432 92.8355 17.0224 93.6547 17.3808C94.4739 17.7392 95.1651 18.2341 95.7283 18.8656C96.2915 19.48 96.7182 20.1883 97.0083 20.9904C97.3155 21.7925 97.4691 22.6459 97.4691 23.5504C97.4691 23.7723 97.4606 24.0027 97.4435 24.2416C97.4265 24.4805 97.3923 24.7024 97.3411 24.9072H86.3075V22.6032H95.7027L94.3203 23.6528C94.491 22.8165 94.4313 22.0741 94.1411 21.4256C93.8681 20.76 93.4414 20.2395 92.8611 19.864C92.2979 19.4715 91.6323 19.2752 90.8643 19.2752C90.0963 19.2752 89.4137 19.4715 88.8163 19.864C88.219 20.2395 87.7582 20.7856 87.4339 21.5024C87.1097 22.2021 86.9817 23.0555 87.0499 24.0624C86.9646 25.0011 87.0926 25.8203 87.4339 26.52C87.7923 27.2197 88.2873 27.7659 88.9187 28.1584C89.5673 28.5509 90.3011 28.7472 91.1203 28.7472C91.9566 28.7472 92.6649 28.5595 93.2451 28.184C93.8425 27.8085 94.3118 27.3221 94.6531 26.7248L97.0083 27.8768C96.7353 28.5253 96.3086 29.1141 95.7283 29.6432C95.1651 30.1552 94.4825 30.5648 93.6803 30.872C92.8953 31.1621 92.0334 31.3072 91.0947 31.3072ZM106.872 31.3072C105.489 31.3072 104.26 30.9915 103.185 30.36C102.127 29.7115 101.282 28.8411 100.651 27.7488C100.036 26.6565 99.7291 25.4192 99.7291 24.0368C99.7291 22.6715 100.036 21.4427 100.651 20.3504C101.265 19.2581 102.11 18.4048 103.185 17.7904C104.26 17.1589 105.489 16.8432 106.872 16.8432C107.81 16.8432 108.689 17.0139 109.508 17.3552C110.328 17.6795 111.036 18.1317 111.633 18.712C112.248 19.2923 112.7 19.9664 112.99 20.7344L110.456 21.912C110.165 21.1952 109.696 20.6235 109.048 20.1968C108.416 19.7531 107.691 19.5312 106.872 19.5312C106.086 19.5312 105.378 19.7275 104.747 20.12C104.132 20.4955 103.646 21.0331 103.288 21.7328C102.929 22.4155 102.75 23.192 102.75 24.0624C102.75 24.9328 102.929 25.7179 103.288 26.4176C103.646 27.1003 104.132 27.6379 104.747 28.0304C105.378 28.4229 106.086 28.6192 106.872 28.6192C107.708 28.6192 108.433 28.4059 109.048 27.9792C109.679 27.5355 110.148 26.9467 110.456 26.2128L112.99 27.416C112.717 28.1499 112.273 28.8155 111.659 29.4128C111.061 29.9931 110.353 30.4539 109.534 30.7952C108.715 31.1365 107.827 31.3072 106.872 31.3072ZM115.817 31V11.6208H118.71V19.864L118.249 19.5056C118.591 18.6352 119.137 17.9781 119.888 17.5344C120.639 17.0736 121.509 16.8432 122.499 16.8432C123.523 16.8432 124.427 17.0651 125.213 17.5088C125.998 17.9525 126.612 18.5669 127.056 19.352C127.499 20.1371 127.721 21.0331 127.721 22.04V31H124.854V22.8336C124.854 22.1339 124.718 21.5451 124.445 21.0672C124.189 20.5723 123.83 20.1968 123.369 19.9408C122.909 19.6677 122.379 19.5312 121.782 19.5312C121.202 19.5312 120.673 19.6677 120.195 19.9408C119.734 20.1968 119.367 20.5723 119.094 21.0672C118.838 21.5621 118.71 22.1509 118.71 22.8336V31H115.817ZM154.817 31V17.1504H157.582V19.864L157.249 19.5056C157.591 18.6352 158.137 17.9781 158.888 17.5344C159.639 17.0736 160.509 16.8432 161.499 16.8432C162.523 16.8432 163.427 17.0651 164.213 17.5088C164.998 17.9525 165.612 18.5669 166.056 19.352C166.499 20.1371 166.721 21.0416 166.721 22.0656V31H163.854V22.8336C163.854 22.1339 163.726 21.5451 163.47 21.0672C163.214 20.5723 162.847 20.1968 162.369 19.9408C161.909 19.6677 161.379 19.5312 160.782 19.5312C160.185 19.5312 159.647 19.6677 159.169 19.9408C158.709 20.1968 158.35 20.5723 158.094 21.0672C157.838 21.5621 157.71 22.1509 157.71 22.8336V31H154.817Z" fill="#04021E" style="fill:#04021E;fill:color(display-p3 0.0152 0.0097 0.1190);fill-opacity:1;"/>
<path d="M129.409 31L136.117 11.928H139.854L146.561 31H143.336L141.877 26.7248H134.12L132.635 31H129.409ZM134.99 24.0368H140.955L137.576 14.0528H138.421L134.99 24.0368ZM148.542 31V17.1504H151.435V31H148.542ZM148.542 15.256V11.928H151.435V15.256H148.542Z" fill="url(#paint42_linear_164_901)" style=""/>
<defs>
<linearGradient id="paint0_linear_164_901" x1="18.4638" y1="1" x2="18.4638" y2="41" gradientUnits="userSpaceOnUse">
<stop stop-color="#F67114" style="stop-color:#F67114;stop-color:color(display-p3 0.9647 0.4431 0.0784);stop-opacity:1;"/>
<stop offset="0.5" stop-color="#E21AEF" style="stop-color:#E21AEF;stop-color:color(display-p3 0.8863 0.1020 0.9373);stop-opacity:1;"/>
<stop offset="1" stop-color="#2A76EE" style="stop-color:#2A76EE;stop-color:color(display-p3 0.1647 0.4627 0.9333);stop-opacity:1;"/>
</linearGradient>
<linearGradient id="paint1_linear_164_901" x1="18.4638" y1="1" x2="18.4638" y2="41" gradientUnits="userSpaceOnUse">
<stop stop-color="#F67114" style="stop-color:#F67114;stop-color:color(display-p3 0.9647 0.4431 0.0784);stop-opacity:1;"/>
<stop offset="0.5" stop-color="#E21AEF" style="stop-color:#E21AEF;stop-color:color(display-p3 0.8863 0.1020 0.9373);stop-opacity:1;"/>
<stop offset="1" stop-color="#2A76EE" style="stop-color:#2A76EE;stop-color:color(display-p3 0.1647 0.4627 0.9333);stop-opacity:1;"/>
</linearGradient>
<linearGradient id="paint2_linear_164_901" x1="18.4638" y1="1" x2="18.4638" y2="41" gradientUnits="userSpaceOnUse">
<stop stop-color="#F67114" style="stop-color:#F67114;stop-color:color(display-p3 0.9647 0.4431 0.0784);stop-opacity:1;"/>
<stop offset="0.5" stop-color="#E21AEF" style="stop-color:#E21AEF;stop-color:color(display-p3 0.8863 0.1020 0.9373);stop-opacity:1;"/>
<stop offset="1" stop-color="#2A76EE" style="stop-color:#2A76EE;stop-color:color(display-p3 0.1647 0.4627 0.9333);stop-opacity:1;"/>
</linearGradient>
<linearGradient id="paint3_linear_164_901" x1="18.4638" y1="1" x2="18.4638" y2="41" gradientUnits="userSpaceOnUse">
<stop stop-color="#F67114" style="stop-color:#F67114;stop-color:color(display-p3 0.9647 0.4431 0.0784);stop-opacity:1;"/>
<stop offset="0.5" stop-color="#E21AEF" style="stop-color:#E21AEF;stop-color:color(display-p3 0.8863 0.1020 0.9373);stop-opacity:1;"/>
<stop offset="1" stop-color="#2A76EE" style="stop-color:#2A76EE;stop-color:color(display-p3 0.1647 0.4627 0.9333);stop-opacity:1;"/>
</linearGradient>
<linearGradient id="paint4_linear_164_901" x1="18.4638" y1="1" x2="18.4638" y2="41" gradientUnits="userSpaceOnUse">
<stop stop-color="#F67114" style="stop-color:#F67114;stop-color:color(display-p3 0.9647 0.4431 0.0784);stop-opacity:1;"/>
<stop offset="0.5" stop-color="#E21AEF" style="stop-color:#E21AEF;stop-color:color(display-p3 0.8863 0.1020 0.9373);stop-opacity:1;"/>
<stop offset="1" stop-color="#2A76EE" style="stop-color:#2A76EE;stop-color:color(display-p3 0.1647 0.4627 0.9333);stop-opacity:1;"/>
</linearGradient>
<linearGradient id="paint5_linear_164_901" x1="18.4638" y1="1" x2="18.4638" y2="41" gradientUnits="userSpaceOnUse">
<stop stop-color="#F67114" style="stop-color:#F67114;stop-color:color(display-p3 0.9647 0.4431 0.0784);stop-opacity:1;"/>
<stop offset="0.5" stop-color="#E21AEF" style="stop-color:#E21AEF;stop-color:color(display-p3 0.8863 0.1020 0.9373);stop-opacity:1;"/>
<stop offset="1" stop-color="#2A76EE" style="stop-color:#2A76EE;stop-color:color(display-p3 0.1647 0.4627 0.9333);stop-opacity:1;"/>
</linearGradient>
<linearGradient id="paint6_linear_164_901" x1="18.4638" y1="1" x2="18.4638" y2="41" gradientUnits="userSpaceOnUse">
<stop stop-color="#F67114" style="stop-color:#F67114;stop-color:color(display-p3 0.9647 0.4431 0.0784);stop-opacity:1;"/>
<stop offset="0.5" stop-color="#E21AEF" style="stop-color:#E21AEF;stop-color:color(display-p3 0.8863 0.1020 0.9373);stop-opacity:1;"/>
<stop offset="1" stop-color="#2A76EE" style="stop-color:#2A76EE;stop-color:color(display-p3 0.1647 0.4627 0.9333);stop-opacity:1;"/>
</linearGradient>
<linearGradient id="paint7_linear_164_901" x1="18.4638" y1="1" x2="18.4638" y2="41" gradientUnits="userSpaceOnUse">
<stop stop-color="#F67114" style="stop-color:#F67114;stop-color:color(display-p3 0.9647 0.4431 0.0784);stop-opacity:1;"/>
<stop offset="0.5" stop-color="#E21AEF" style="stop-color:#E21AEF;stop-color:color(display-p3 0.8863 0.1020 0.9373);stop-opacity:1;"/>
<stop offset="1" stop-color="#2A76EE" style="stop-color:#2A76EE;stop-color:color(display-p3 0.1647 0.4627 0.9333);stop-opacity:1;"/>
</linearGradient>
<linearGradient id="paint8_linear_164_901" x1="18.4638" y1="1" x2="18.4638" y2="41" gradientUnits="userSpaceOnUse">
<stop stop-color="#F67114" style="stop-color:#F67114;stop-color:color(display-p3 0.9647 0.4431 0.0784);stop-opacity:1;"/>
<stop offset="0.5" stop-color="#E21AEF" style="stop-color:#E21AEF;stop-color:color(display-p3 0.8863 0.1020 0.9373);stop-opacity:1;"/>
<stop offset="1" stop-color="#2A76EE" style="stop-color:#2A76EE;stop-color:color(display-p3 0.1647 0.4627 0.9333);stop-opacity:1;"/>
</linearGradient>
<linearGradient id="paint9_linear_164_901" x1="18.4638" y1="1" x2="18.4638" y2="41" gradientUnits="userSpaceOnUse">
<stop stop-color="#F67114" style="stop-color:#F67114;stop-color:color(display-p3 0.9647 0.4431 0.0784);stop-opacity:1;"/>
<stop offset="0.5" stop-color="#E21AEF" style="stop-color:#E21AEF;stop-color:color(display-p3 0.8863 0.1020 0.9373);stop-opacity:1;"/>
<stop offset="1" stop-color="#2A76EE" style="stop-color:#2A76EE;stop-color:color(display-p3 0.1647 0.4627 0.9333);stop-opacity:1;"/>
</linearGradient>
<linearGradient id="paint10_linear_164_901" x1="18.4638" y1="1" x2="18.4638" y2="41" gradientUnits="userSpaceOnUse">
<stop stop-color="#F67114" style="stop-color:#F67114;stop-color:color(display-p3 0.9647 0.4431 0.0784);stop-opacity:1;"/>
<stop offset="0.5" stop-color="#E21AEF" style="stop-color:#E21AEF;stop-color:color(display-p3 0.8863 0.1020 0.9373);stop-opacity:1;"/>
<stop offset="1" stop-color="#2A76EE" style="stop-color:#2A76EE;stop-color:color(display-p3 0.1647 0.4627 0.9333);stop-opacity:1;"/>
</linearGradient>
<linearGradient id="paint11_linear_164_901" x1="18.4638" y1="1" x2="18.4638" y2="41" gradientUnits="userSpaceOnUse">
<stop stop-color="#F67114" style="stop-color:#F67114;stop-color:color(display-p3 0.9647 0.4431 0.0784);stop-opacity:1;"/>
<stop offset="0.5" stop-color="#E21AEF" style="stop-color:#E21AEF;stop-color:color(display-p3 0.8863 0.1020 0.9373);stop-opacity:1;"/>
<stop offset="1" stop-color="#2A76EE" style="stop-color:#2A76EE;stop-color:color(display-p3 0.1647 0.4627 0.9333);stop-opacity:1;"/>
</linearGradient>
<linearGradient id="paint12_linear_164_901" x1="18.4638" y1="1" x2="18.4638" y2="41" gradientUnits="userSpaceOnUse">
<stop stop-color="#F67114" style="stop-color:#F67114;stop-color:color(display-p3 0.9647 0.4431 0.0784);stop-opacity:1;"/>
<stop offset="0.5" stop-color="#E21AEF" style="stop-color:#E21AEF;stop-color:color(display-p3 0.8863 0.1020 0.9373);stop-opacity:1;"/>
<stop offset="1" stop-color="#2A76EE" style="stop-color:#2A76EE;stop-color:color(display-p3 0.1647 0.4627 0.9333);stop-opacity:1;"/>
</linearGradient>
<linearGradient id="paint13_linear_164_901" x1="18.4638" y1="1" x2="18.4638" y2="41" gradientUnits="userSpaceOnUse">
<stop stop-color="#F67114" style="stop-color:#F67114;stop-color:color(display-p3 0.9647 0.4431 0.0784);stop-opacity:1;"/>
<stop offset="0.5" stop-color="#E21AEF" style="stop-color:#E21AEF;stop-color:color(display-p3 0.8863 0.1020 0.9373);stop-opacity:1;"/>
<stop offset="1" stop-color="#2A76EE" style="stop-color:#2A76EE;stop-color:color(display-p3 0.1647 0.4627 0.9333);stop-opacity:1;"/>
</linearGradient>
<linearGradient id="paint14_linear_164_901" x1="18.4638" y1="1" x2="18.4638" y2="41" gradientUnits="userSpaceOnUse">
<stop stop-color="#F67114" style="stop-color:#F67114;stop-color:color(display-p3 0.9647 0.4431 0.0784);stop-opacity:1;"/>
<stop offset="0.5" stop-color="#E21AEF" style="stop-color:#E21AEF;stop-color:color(display-p3 0.8863 0.1020 0.9373);stop-opacity:1;"/>
<stop offset="1" stop-color="#2A76EE" style="stop-color:#2A76EE;stop-color:color(display-p3 0.1647 0.4627 0.9333);stop-opacity:1;"/>
</linearGradient>
<linearGradient id="paint15_linear_164_901" x1="18.4638" y1="1" x2="18.4638" y2="41" gradientUnits="userSpaceOnUse">
<stop stop-color="#F67114" style="stop-color:#F67114;stop-color:color(display-p3 0.9647 0.4431 0.0784);stop-opacity:1;"/>
<stop offset="0.5" stop-color="#E21AEF" style="stop-color:#E21AEF;stop-color:color(display-p3 0.8863 0.1020 0.9373);stop-opacity:1;"/>
<stop offset="1" stop-color="#2A76EE" style="stop-color:#2A76EE;stop-color:color(display-p3 0.1647 0.4627 0.9333);stop-opacity:1;"/>
</linearGradient>
<linearGradient id="paint16_linear_164_901" x1="18.4638" y1="1" x2="18.4638" y2="41" gradientUnits="userSpaceOnUse">
<stop stop-color="#F67114" style="stop-color:#F67114;stop-color:color(display-p3 0.9647 0.4431 0.0784);stop-opacity:1;"/>
<stop offset="0.5" stop-color="#E21AEF" style="stop-color:#E21AEF;stop-color:color(display-p3 0.8863 0.1020 0.9373);stop-opacity:1;"/>
<stop offset="1" stop-color="#2A76EE" style="stop-color:#2A76EE;stop-color:color(display-p3 0.1647 0.4627 0.9333);stop-opacity:1;"/>
</linearGradient>
<linearGradient id="paint17_linear_164_901" x1="18.4638" y1="1" x2="18.4638" y2="41" gradientUnits="userSpaceOnUse">
<stop stop-color="#F67114" style="stop-color:#F67114;stop-color:color(display-p3 0.9647 0.4431 0.0784);stop-opacity:1;"/>
<stop offset="0.5" stop-color="#E21AEF" style="stop-color:#E21AEF;stop-color:color(display-p3 0.8863 0.1020 0.9373);stop-opacity:1;"/>
<stop offset="1" stop-color="#2A76EE" style="stop-color:#2A76EE;stop-color:color(display-p3 0.1647 0.4627 0.9333);stop-opacity:1;"/>
</linearGradient>
<linearGradient id="paint18_linear_164_901" x1="18.4638" y1="1" x2="18.4638" y2="41" gradientUnits="userSpaceOnUse">
<stop stop-color="#F67114" style="stop-color:#F67114;stop-color:color(display-p3 0.9647 0.4431 0.0784);stop-opacity:1;"/>
<stop offset="0.5" stop-color="#E21AEF" style="stop-color:#E21AEF;stop-color:color(display-p3 0.8863 0.1020 0.9373);stop-opacity:1;"/>
<stop offset="1" stop-color="#2A76EE" style="stop-color:#2A76EE;stop-color:color(display-p3 0.1647 0.4627 0.9333);stop-opacity:1;"/>
</linearGradient>
<linearGradient id="paint19_linear_164_901" x1="18.4638" y1="1" x2="18.4638" y2="41" gradientUnits="userSpaceOnUse">
<stop stop-color="#F67114" style="stop-color:#F67114;stop-color:color(display-p3 0.9647 0.4431 0.0784);stop-opacity:1;"/>
<stop offset="0.5" stop-color="#E21AEF" style="stop-color:#E21AEF;stop-color:color(display-p3 0.8863 0.1020 0.9373);stop-opacity:1;"/>
<stop offset="1" stop-color="#2A76EE" style="stop-color:#2A76EE;stop-color:color(display-p3 0.1647 0.4627 0.9333);stop-opacity:1;"/>
</linearGradient>
<linearGradient id="paint20_linear_164_901" x1="18.4638" y1="1" x2="18.4638" y2="41" gradientUnits="userSpaceOnUse">
<stop stop-color="#F67114" style="stop-color:#F67114;stop-color:color(display-p3 0.9647 0.4431 0.0784);stop-opacity:1;"/>
<stop offset="0.5" stop-color="#E21AEF" style="stop-color:#E21AEF;stop-color:color(display-p3 0.8863 0.1020 0.9373);stop-opacity:1;"/>
<stop offset="1" stop-color="#2A76EE" style="stop-color:#2A76EE;stop-color:color(display-p3 0.1647 0.4627 0.9333);stop-opacity:1;"/>
</linearGradient>
<linearGradient id="paint21_linear_164_901" x1="18.4638" y1="1" x2="18.4638" y2="41" gradientUnits="userSpaceOnUse">
<stop stop-color="#F67114" style="stop-color:#F67114;stop-color:color(display-p3 0.9647 0.4431 0.0784);stop-opacity:1;"/>
<stop offset="0.5" stop-color="#E21AEF" style="stop-color:#E21AEF;stop-color:color(display-p3 0.8863 0.1020 0.9373);stop-opacity:1;"/>
<stop offset="1" stop-color="#2A76EE" style="stop-color:#2A76EE;stop-color:color(display-p3 0.1647 0.4627 0.9333);stop-opacity:1;"/>
</linearGradient>
<linearGradient id="paint22_linear_164_901" x1="18.4638" y1="1" x2="18.4638" y2="41" gradientUnits="userSpaceOnUse">
<stop stop-color="#F67114" style="stop-color:#F67114;stop-color:color(display-p3 0.9647 0.4431 0.0784);stop-opacity:1;"/>
<stop offset="0.5" stop-color="#E21AEF" style="stop-color:#E21AEF;stop-color:color(display-p3 0.8863 0.1020 0.9373);stop-opacity:1;"/>
<stop offset="1" stop-color="#2A76EE" style="stop-color:#2A76EE;stop-color:color(display-p3 0.1647 0.4627 0.9333);stop-opacity:1;"/>
</linearGradient>
<linearGradient id="paint23_linear_164_901" x1="18.4638" y1="1" x2="18.4638" y2="41" gradientUnits="userSpaceOnUse">
<stop stop-color="#F67114" style="stop-color:#F67114;stop-color:color(display-p3 0.9647 0.4431 0.0784);stop-opacity:1;"/>
<stop offset="0.5" stop-color="#E21AEF" style="stop-color:#E21AEF;stop-color:color(display-p3 0.8863 0.1020 0.9373);stop-opacity:1;"/>
<stop offset="1" stop-color="#2A76EE" style="stop-color:#2A76EE;stop-color:color(display-p3 0.1647 0.4627 0.9333);stop-opacity:1;"/>
</linearGradient>
<linearGradient id="paint24_linear_164_901" x1="18.4638" y1="1" x2="18.4638" y2="41" gradientUnits="userSpaceOnUse">
<stop stop-color="#F67114" style="stop-color:#F67114;stop-color:color(display-p3 0.9647 0.4431 0.0784);stop-opacity:1;"/>
<stop offset="0.5" stop-color="#E21AEF" style="stop-color:#E21AEF;stop-color:color(display-p3 0.8863 0.1020 0.9373);stop-opacity:1;"/>
<stop offset="1" stop-color="#2A76EE" style="stop-color:#2A76EE;stop-color:color(display-p3 0.1647 0.4627 0.9333);stop-opacity:1;"/>
</linearGradient>
<linearGradient id="paint25_linear_164_901" x1="18.4638" y1="1" x2="18.4638" y2="41" gradientUnits="userSpaceOnUse">
<stop stop-color="#F67114" style="stop-color:#F67114;stop-color:color(display-p3 0.9647 0.4431 0.0784);stop-opacity:1;"/>
<stop offset="0.5" stop-color="#E21AEF" style="stop-color:#E21AEF;stop-color:color(display-p3 0.8863 0.1020 0.9373);stop-opacity:1;"/>
<stop offset="1" stop-color="#2A76EE" style="stop-color:#2A76EE;stop-color:color(display-p3 0.1647 0.4627 0.9333);stop-opacity:1;"/>
</linearGradient>
<linearGradient id="paint26_linear_164_901" x1="18.4638" y1="1" x2="18.4638" y2="41" gradientUnits="userSpaceOnUse">
<stop stop-color="#F67114" style="stop-color:#F67114;stop-color:color(display-p3 0.9647 0.4431 0.0784);stop-opacity:1;"/>
<stop offset="0.5" stop-color="#E21AEF" style="stop-color:#E21AEF;stop-color:color(display-p3 0.8863 0.1020 0.9373);stop-opacity:1;"/>
<stop offset="1" stop-color="#2A76EE" style="stop-color:#2A76EE;stop-color:color(display-p3 0.1647 0.4627 0.9333);stop-opacity:1;"/>
</linearGradient>
<linearGradient id="paint27_linear_164_901" x1="18.4638" y1="1" x2="18.4638" y2="41" gradientUnits="userSpaceOnUse">
<stop stop-color="#F67114" style="stop-color:#F67114;stop-color:color(display-p3 0.9647 0.4431 0.0784);stop-opacity:1;"/>
<stop offset="0.5" stop-color="#E21AEF" style="stop-color:#E21AEF;stop-color:color(display-p3 0.8863 0.1020 0.9373);stop-opacity:1;"/>
<stop offset="1" stop-color="#2A76EE" style="stop-color:#2A76EE;stop-color:color(display-p3 0.1647 0.4627 0.9333);stop-opacity:1;"/>
</linearGradient>
<linearGradient id="paint28_linear_164_901" x1="18.4638" y1="1" x2="18.4638" y2="41" gradientUnits="userSpaceOnUse">
<stop stop-color="#F67114" style="stop-color:#F67114;stop-color:color(display-p3 0.9647 0.4431 0.0784);stop-opacity:1;"/>
<stop offset="0.5" stop-color="#E21AEF" style="stop-color:#E21AEF;stop-color:color(display-p3 0.8863 0.1020 0.9373);stop-opacity:1;"/>
<stop offset="1" stop-color="#2A76EE" style="stop-color:#2A76EE;stop-color:color(display-p3 0.1647 0.4627 0.9333);stop-opacity:1;"/>
</linearGradient>
<linearGradient id="paint29_linear_164_901" x1="18.4638" y1="1" x2="18.4638" y2="41" gradientUnits="userSpaceOnUse">
<stop stop-color="#F67114" style="stop-color:#F67114;stop-color:color(display-p3 0.9647 0.4431 0.0784);stop-opacity:1;"/>
<stop offset="0.5" stop-color="#E21AEF" style="stop-color:#E21AEF;stop-color:color(display-p3 0.8863 0.1020 0.9373);stop-opacity:1;"/>
<stop offset="1" stop-color="#2A76EE" style="stop-color:#2A76EE;stop-color:color(display-p3 0.1647 0.4627 0.9333);stop-opacity:1;"/>
</linearGradient>
<linearGradient id="paint30_linear_164_901" x1="18.4638" y1="1" x2="18.4638" y2="41" gradientUnits="userSpaceOnUse">
<stop stop-color="#F67114" style="stop-color:#F67114;stop-color:color(display-p3 0.9647 0.4431 0.0784);stop-opacity:1;"/>
<stop offset="0.5" stop-color="#E21AEF" style="stop-color:#E21AEF;stop-color:color(display-p3 0.8863 0.1020 0.9373);stop-opacity:1;"/>
<stop offset="1" stop-color="#2A76EE" style="stop-color:#2A76EE;stop-color:color(display-p3 0.1647 0.4627 0.9333);stop-opacity:1;"/>
</linearGradient>
<linearGradient id="paint31_linear_164_901" x1="18.4638" y1="1" x2="18.4638" y2="41" gradientUnits="userSpaceOnUse">
<stop stop-color="#F67114" style="stop-color:#F67114;stop-color:color(display-p3 0.9647 0.4431 0.0784);stop-opacity:1;"/>
<stop offset="0.5" stop-color="#E21AEF" style="stop-color:#E21AEF;stop-color:color(display-p3 0.8863 0.1020 0.9373);stop-opacity:1;"/>
<stop offset="1" stop-color="#2A76EE" style="stop-color:#2A76EE;stop-color:color(display-p3 0.1647 0.4627 0.9333);stop-opacity:1;"/>
</linearGradient>
<linearGradient id="paint32_linear_164_901" x1="18.4638" y1="1" x2="18.4638" y2="41" gradientUnits="userSpaceOnUse">
<stop stop-color="#F67114" style="stop-color:#F67114;stop-color:color(display-p3 0.9647 0.4431 0.0784);stop-opacity:1;"/>
<stop offset="0.5" stop-color="#E21AEF" style="stop-color:#E21AEF;stop-color:color(display-p3 0.8863 0.1020 0.9373);stop-opacity:1;"/>
<stop offset="1" stop-color="#2A76EE" style="stop-color:#2A76EE;stop-color:color(display-p3 0.1647 0.4627 0.9333);stop-opacity:1;"/>
</linearGradient>
<linearGradient id="paint33_linear_164_901" x1="18.4638" y1="1" x2="18.4638" y2="41" gradientUnits="userSpaceOnUse">
<stop stop-color="#F67114" style="stop-color:#F67114;stop-color:color(display-p3 0.9647 0.4431 0.0784);stop-opacity:1;"/>
<stop offset="0.5" stop-color="#E21AEF" style="stop-color:#E21AEF;stop-color:color(display-p3 0.8863 0.1020 0.9373);stop-opacity:1;"/>
<stop offset="1" stop-color="#2A76EE" style="stop-color:#2A76EE;stop-color:color(display-p3 0.1647 0.4627 0.9333);stop-opacity:1;"/>
</linearGradient>
<linearGradient id="paint34_linear_164_901" x1="18.4638" y1="1" x2="18.4638" y2="41" gradientUnits="userSpaceOnUse">
<stop stop-color="#F67114" style="stop-color:#F67114;stop-color:color(display-p3 0.9647 0.4431 0.0784);stop-opacity:1;"/>
<stop offset="0.5" stop-color="#E21AEF" style="stop-color:#E21AEF;stop-color:color(display-p3 0.8863 0.1020 0.9373);stop-opacity:1;"/>
<stop offset="1" stop-color="#2A76EE" style="stop-color:#2A76EE;stop-color:color(display-p3 0.1647 0.4627 0.9333);stop-opacity:1;"/>
</linearGradient>
<linearGradient id="paint35_linear_164_901" x1="18.4638" y1="1" x2="18.4638" y2="41" gradientUnits="userSpaceOnUse">
<stop stop-color="#F67114" style="stop-color:#F67114;stop-color:color(display-p3 0.9647 0.4431 0.0784);stop-opacity:1;"/>
<stop offset="0.5" stop-color="#E21AEF" style="stop-color:#E21AEF;stop-color:color(display-p3 0.8863 0.1020 0.9373);stop-opacity:1;"/>
<stop offset="1" stop-color="#2A76EE" style="stop-color:#2A76EE;stop-color:color(display-p3 0.1647 0.4627 0.9333);stop-opacity:1;"/>
</linearGradient>
<linearGradient id="paint36_linear_164_901" x1="18.4638" y1="1" x2="18.4638" y2="41" gradientUnits="userSpaceOnUse">
<stop stop-color="#F67114" style="stop-color:#F67114;stop-color:color(display-p3 0.9647 0.4431 0.0784);stop-opacity:1;"/>
<stop offset="0.5" stop-color="#E21AEF" style="stop-color:#E21AEF;stop-color:color(display-p3 0.8863 0.1020 0.9373);stop-opacity:1;"/>
<stop offset="1" stop-color="#2A76EE" style="stop-color:#2A76EE;stop-color:color(display-p3 0.1647 0.4627 0.9333);stop-opacity:1;"/>
</linearGradient>
<linearGradient id="paint37_linear_164_901" x1="18.4638" y1="1" x2="18.4638" y2="41" gradientUnits="userSpaceOnUse">
<stop stop-color="#F67114" style="stop-color:#F67114;stop-color:color(display-p3 0.9647 0.4431 0.0784);stop-opacity:1;"/>
<stop offset="0.5" stop-color="#E21AEF" style="stop-color:#E21AEF;stop-color:color(display-p3 0.8863 0.1020 0.9373);stop-opacity:1;"/>
<stop offset="1" stop-color="#2A76EE" style="stop-color:#2A76EE;stop-color:color(display-p3 0.1647 0.4627 0.9333);stop-opacity:1;"/>
</linearGradient>
<linearGradient id="paint38_linear_164_901" x1="18.4638" y1="1" x2="18.4638" y2="41" gradientUnits="userSpaceOnUse">
<stop stop-color="#F67114" style="stop-color:#F67114;stop-color:color(display-p3 0.9647 0.4431 0.0784);stop-opacity:1;"/>
<stop offset="0.5" stop-color="#E21AEF" style="stop-color:#E21AEF;stop-color:color(display-p3 0.8863 0.1020 0.9373);stop-opacity:1;"/>
<stop offset="1" stop-color="#2A76EE" style="stop-color:#2A76EE;stop-color:color(display-p3 0.1647 0.4627 0.9333);stop-opacity:1;"/>
</linearGradient>
<linearGradient id="paint39_linear_164_901" x1="18.4638" y1="1" x2="18.4638" y2="41" gradientUnits="userSpaceOnUse">
<stop stop-color="#F67114" style="stop-color:#F67114;stop-color:color(display-p3 0.9647 0.4431 0.0784);stop-opacity:1;"/>
<stop offset="0.5" stop-color="#E21AEF" style="stop-color:#E21AEF;stop-color:color(display-p3 0.8863 0.1020 0.9373);stop-opacity:1;"/>
<stop offset="1" stop-color="#2A76EE" style="stop-color:#2A76EE;stop-color:color(display-p3 0.1647 0.4627 0.9333);stop-opacity:1;"/>
</linearGradient>
<linearGradient id="paint40_linear_164_901" x1="18.4638" y1="1" x2="18.4638" y2="41" gradientUnits="userSpaceOnUse">
<stop stop-color="#F67114" style="stop-color:#F67114;stop-color:color(display-p3 0.9647 0.4431 0.0784);stop-opacity:1;"/>
<stop offset="0.5" stop-color="#E21AEF" style="stop-color:#E21AEF;stop-color:color(display-p3 0.8863 0.1020 0.9373);stop-opacity:1;"/>
<stop offset="1" stop-color="#2A76EE" style="stop-color:#2A76EE;stop-color:color(display-p3 0.1647 0.4627 0.9333);stop-opacity:1;"/>
</linearGradient>
<linearGradient id="paint41_linear_164_901" x1="18.4638" y1="1" x2="18.4638" y2="41" gradientUnits="userSpaceOnUse">
<stop stop-color="#F67114" style="stop-color:#F67114;stop-color:color(display-p3 0.9647 0.4431 0.0784);stop-opacity:1;"/>
<stop offset="0.5" stop-color="#E21AEF" style="stop-color:#E21AEF;stop-color:color(display-p3 0.8863 0.1020 0.9373);stop-opacity:1;"/>
<stop offset="1" stop-color="#2A76EE" style="stop-color:#2A76EE;stop-color:color(display-p3 0.1647 0.4627 0.9333);stop-opacity:1;"/>
</linearGradient>
<linearGradient id="paint42_linear_164_901" x1="106.428" y1="5" x2="106.428" y2="37" gradientUnits="userSpaceOnUse">
<stop stop-color="#F67114" style="stop-color:#F67114;stop-color:color(display-p3 0.9647 0.4431 0.0784);stop-opacity:1;"/>
<stop offset="0.5" stop-color="#E21AEF" style="stop-color:#E21AEF;stop-color:color(display-p3 0.8863 0.1020 0.9373);stop-opacity:1;"/>
<stop offset="1" stop-color="#2A76EE" style="stop-color:#2A76EE;stop-color:color(display-p3 0.1647 0.4627 0.9333);stop-opacity:1;"/>
</linearGradient>
</defs>
</svg>
