<svg width="54" height="43" viewBox="0 0 54 43" fill="none" xmlns="http://www.w3.org/2000/svg">
<path d="M2.24429 32.2322V23.7525C2.24429 23.0489 2.12297 22.4342 1.88035 21.9085C1.63772 21.3828 1.37488 20.8855 1.09181 20.4164L3.09348 19.7855C3.31184 20.1171 3.50998 20.4528 3.68791 20.7924C3.86583 21.124 3.98715 21.4839 4.05185 21.8721C4.37535 21.217 4.84847 20.663 5.47121 20.2101C6.10203 19.7492 6.8016 19.5187 7.56992 19.5187C8.07134 19.5187 8.45146 19.5429 8.71026 19.5914C8.97715 19.64 9.21977 19.6966 9.43813 19.7613L9.2683 21.5203C9.16316 21.4799 8.9731 21.4233 8.69813 21.3505C8.42315 21.2696 8.02686 21.2292 7.50926 21.2292C6.62772 21.2292 5.85941 21.5608 5.20432 22.2239C4.55732 22.879 4.23382 23.9183 4.23382 25.3417V32.2322H2.24429ZM17.0342 32.4991C15.8049 32.4991 14.705 32.2322 13.7345 31.6985C12.7721 31.1647 12.0119 30.4085 11.4538 29.4299C10.8958 28.4513 10.6168 27.2989 10.6168 25.9725C10.6168 24.8322 10.8634 23.7727 11.3568 22.7941C11.8582 21.8155 12.578 21.027 13.5161 20.4285C14.4624 19.8219 15.5987 19.5187 16.925 19.5187C17.7985 19.5187 18.5547 19.6804 19.1936 20.0039C19.8406 20.3193 20.338 20.748 20.6857 21.2898C21.0416 21.8317 21.2195 22.4423 21.2195 23.1216C21.2195 24.1083 20.8596 24.9009 20.1398 25.4994C19.42 26.0979 18.4374 26.5669 17.1919 26.9066C15.9545 27.2382 14.5513 27.5132 12.9824 27.7315C13.1441 28.3462 13.4312 28.888 13.8437 29.3571C14.2561 29.8181 14.7414 30.178 15.2994 30.4368C15.8575 30.6956 16.4357 30.825 17.0342 30.825C17.8753 30.825 18.6477 30.6673 19.3513 30.3519C20.063 30.0284 20.621 29.6361 21.0254 29.1752L22.0323 30.4611C21.4257 31.0838 20.6817 31.5812 19.8001 31.9532C18.9267 32.3172 18.0047 32.4991 17.0342 32.4991ZM12.8368 26.2879C14.0823 26.11 15.1862 25.8957 16.1486 25.645C17.111 25.3942 17.8672 25.0667 18.4172 24.6623C18.9671 24.2499 19.2421 23.7201 19.2421 23.0731C19.2421 22.5232 19.0399 22.0784 18.6355 21.7387C18.2392 21.399 17.6731 21.2292 16.9372 21.2292C16.2659 21.2292 15.6108 21.395 14.9719 21.7266C14.3411 22.0501 13.8194 22.5434 13.407 23.2066C13.0026 23.8617 12.8004 24.6906 12.8004 25.6935C12.8004 25.8957 12.8125 26.0938 12.8368 26.2879ZM22.6669 32.2322L29.9942 14.5691H32.2385L39.5779 32.2322H37.2608L35.2834 27.4161H26.8158L24.9233 32.2322H22.6669ZM27.483 25.6207H34.5677L31.729 18.2813C31.6238 18.0225 31.5106 17.7273 31.3893 17.3957C31.2761 17.0641 31.175 16.7608 31.086 16.4858C30.9971 16.7608 30.8919 17.0681 30.7706 17.4078C30.6493 17.7394 30.5442 18.0346 30.4552 18.2934L27.483 25.6207ZM42.0622 32.2322V14.5691H44.1487V32.2322H42.0622Z" fill="black"/>
<path d="M31.3391 5.30197H49.0058C49.3452 5.30197 49.6203 5.57709 49.6203 5.91646V34.1831C49.6203 34.5225 49.3452 34.7976 49.0058 34.7976H31.3391" stroke="black" stroke-width="0.614493"/>
<path d="M34.7189 1.00037H52.3855C52.7249 1.00037 53 1.27548 53 1.61486V29.8815C53 30.2209 52.7249 30.496 52.3855 30.496H49.3131" stroke="black" stroke-width="0.614493"/>
</svg>
