<svg width="25" height="25" viewBox="0 0 25 25" fill="none" xmlns="http://www.w3.org/2000/svg">
<g id="ai-science-spark--atom-scientific-experiment-artificial-intelligence-ai">
<g id="ai-science-spark--atom-scientific-experiment-artificial-intelligence-ai_2">
<path id="Ellipse 967" d="M10.7462 8.39642C9.85455 9.0681 8.94778 9.85458 8.0637 10.7387C4.11307 14.6893 2.11144 19.0929 3.59293 20.5744C5.07441 22.0558 9.47801 20.0542 13.4286 16.1036C14.3127 15.2195 15.0992 14.3128 15.7709 13.4211" stroke="#667085" stroke-width="1.7" stroke-linecap="round" stroke-linejoin="round"/>
<path id="Ellipse 968" d="M15.6664 13.642C17.9963 16.7347 18.9449 19.6452 17.7949 20.7952C16.3134 22.2768 11.9098 20.275 7.95921 16.3244C4.00858 12.3738 2.00695 7.97019 3.48843 6.48871C4.63839 5.33875 7.54896 6.28743 10.6417 8.61725" stroke="#667085" stroke-width="1.7" stroke-linecap="round" stroke-linejoin="round"/>
<path id="Ellipse 969" d="M9.91644 14.0327C9.91644 14.4164 10.2275 14.7275 10.6111 14.7275C10.9948 14.7275 11.3059 14.4164 11.3059 14.0327C11.3059 13.6491 10.9948 13.338 10.6111 13.338C10.2275 13.338 9.91644 13.6491 9.91644 14.0327Z" stroke="#667085" stroke-width="1.7" stroke-linecap="round" stroke-linejoin="round"/>
<path id="Vector 2136" d="M13.5375 7.37093C13.1011 7.295 13.1011 6.66845 13.5375 6.59252C15.1188 6.31743 16.3764 5.11306 16.7195 3.54522L16.7459 3.42504C16.8403 2.99368 17.4545 2.99099 17.5528 3.42152L17.5847 3.56157C17.9405 5.12201 19.1985 6.31621 20.7754 6.59053C21.2141 6.66685 21.2141 7.2966 20.7754 7.37292C19.1985 7.64725 17.9405 8.84145 17.5847 10.4019L17.5528 10.542C17.4545 10.9725 16.8403 10.9698 16.7459 10.5384L16.7195 10.4182C16.3764 8.8504 15.1188 7.64602 13.5375 7.37093Z" stroke="#667085" stroke-width="1.7" stroke-linecap="round" stroke-linejoin="round"/>
</g>
</g>
</svg>
