<svg width="303" height="252" viewBox="0 0 303 252" fill="none" xmlns="http://www.w3.org/2000/svg">
<rect x="216.229" y="50.4706" width="83.1959" height="27.7438" rx="6.12945" transform="rotate(9.01149 216.229 50.4706)" fill="white"/>
<rect x="216.229" y="50.4706" width="83.1959" height="27.7438" rx="6.12945" transform="rotate(9.01149 216.229 50.4706)" stroke="#E6E6E6" stroke-width="0.645205"/>
<g clip-path="url(#clip0_162_18195)">
<path d="M227.148 63.2768C226.363 63.6938 225.552 64.1991 224.747 64.7839C221.148 67.3975 219.026 70.6102 220.006 71.9598C220.986 73.3092 224.698 72.2846 228.296 69.671C229.102 69.0862 229.833 68.4713 230.472 67.854" stroke="#ABCE1E" stroke-width="0.967808" stroke-linecap="round" stroke-linejoin="round"/>
<path d="M230.472 67.8533C231.919 70.5754 232.302 72.9821 231.254 73.7429C229.905 74.723 226.692 72.6001 224.078 69.0014C221.465 65.4026 220.44 61.6907 221.79 60.7106C222.837 59.9499 225.007 61.0587 227.148 63.2761" stroke="#ABCE1E" stroke-width="0.967808" stroke-linecap="round" stroke-linejoin="round"/>
<path d="M225.976 67.1396C225.928 67.4413 226.134 67.7246 226.436 67.7724C226.738 67.8203 227.021 67.6145 227.069 67.3128C227.117 67.0112 226.911 66.7278 226.609 66.68C226.307 66.6322 226.024 66.8379 225.976 67.1396Z" stroke="#ABCE1E" stroke-width="0.967808" stroke-linecap="round" stroke-linejoin="round"/>
<path d="M229.471 62.8187C229.137 62.7046 229.215 62.2119 229.568 62.2067C230.845 62.1875 231.984 61.3974 232.45 60.2075L232.485 60.1163C232.613 59.7889 233.097 59.8634 233.12 60.2141L233.128 60.3282C233.213 61.5995 234.053 62.6953 235.259 63.1076C235.594 63.2223 235.516 63.7174 235.161 63.7227C233.887 63.7418 232.749 64.5239 232.275 65.7064L232.232 65.8125C232.101 66.1388 231.619 66.0601 231.598 65.7092L231.593 65.6114C231.518 64.3359 230.68 63.2321 229.471 62.8187Z" stroke="#ABCE1E" stroke-width="0.967808" stroke-linecap="round" stroke-linejoin="round"/>
</g>
<path d="M243.166 65.4061L244.328 65.5905L245.888 69.0676L246.227 69.8949L246.806 69.2132L249.375 66.3909L250.537 66.5752L249.388 73.8245L248.225 73.6401L248.929 69.2049L249.083 68.3619L246.432 71.307L245.586 71.1728L243.996 67.555L243.883 68.3943L243.178 72.8397L242.016 72.6554L243.166 65.4061ZM251.99 66.8056L253.152 66.9899L252.003 74.2392L250.84 74.0548L251.99 66.8056ZM255.713 74.9739C254.917 74.8477 254.326 74.5797 253.938 74.1698C253.551 73.7531 253.382 73.2141 253.431 72.553C253.433 72.4975 253.445 72.4018 253.466 72.2659L254.649 72.4534C254.583 72.8681 254.665 73.1876 254.894 73.4121C255.123 73.6366 255.483 73.7876 255.972 73.8653L256.461 73.9429C256.903 74.0129 257.253 73.9813 257.511 73.8481C257.77 73.708 257.926 73.4957 257.978 73.2113C258.029 72.8919 257.967 72.6451 257.792 72.4711C257.626 72.2914 257.349 72.1256 256.962 71.9736L255.802 71.5075C255.35 71.3312 254.993 71.1631 254.733 71.0034C254.479 70.8447 254.279 70.6143 254.132 70.3123C253.984 70.0102 253.95 69.6144 254.027 69.125C254.131 68.4725 254.432 67.9977 254.932 67.7008C255.434 67.397 256.109 67.3125 256.959 67.4472L257.305 67.5022C258.094 67.6272 258.675 67.8936 259.049 68.3014C259.431 68.7103 259.601 69.2424 259.559 69.8979C259.555 69.9669 259.543 70.0694 259.521 70.2054L258.338 70.0178C258.405 69.5964 258.331 69.2745 258.115 69.0521C257.907 68.8241 257.559 68.6713 257.069 68.5936L256.733 68.5403C256.278 68.4681 255.921 68.4986 255.663 68.6319C255.412 68.7662 255.262 68.9829 255.215 69.282C255.168 69.5743 255.226 69.8064 255.387 69.9782C255.554 70.1511 255.812 70.307 256.159 70.4456L257.317 70.9219C257.775 71.1061 258.141 71.286 258.412 71.4615C258.685 71.6302 258.898 71.8695 259.051 72.1795C259.205 72.4826 259.243 72.8789 259.166 73.3683C259.064 74.0073 258.756 74.4809 258.24 74.7894C257.724 75.0978 257.048 75.1857 256.212 75.0531L255.713 74.9739ZM262.157 75.9959C261.362 75.8698 260.77 75.6018 260.382 75.1918C259.996 74.7751 259.827 74.2362 259.876 73.575C259.878 73.5195 259.889 73.4238 259.911 73.2879L261.094 73.4755C261.028 73.8901 261.11 74.2097 261.339 74.4341C261.568 74.6586 261.927 74.8097 262.417 74.8873L262.906 74.9649C263.348 75.035 263.698 75.0034 263.956 74.8701C264.215 74.73 264.371 74.5178 264.423 74.2334C264.473 73.9139 264.411 73.6672 264.237 73.4932C264.07 73.3134 263.793 73.1476 263.406 72.9956L262.247 72.5295C261.794 72.3532 261.438 72.1852 261.177 72.0254C260.924 71.8667 260.723 71.6364 260.576 71.3343C260.429 71.0322 260.394 70.6365 260.472 70.1471C260.575 69.4945 260.877 69.0198 261.377 68.7228C261.878 68.419 262.553 68.3345 263.403 68.4692L263.75 68.5242C264.538 68.6493 265.12 68.9157 265.494 69.3235C265.875 69.7323 266.045 70.2645 266.004 70.9199C266 70.9889 265.987 71.0914 265.965 71.2274L264.783 71.0398C264.85 70.6184 264.775 70.2965 264.56 70.0742C264.352 69.8461 264.003 69.6933 263.514 69.6157L263.177 69.5623C262.722 69.4901 262.365 69.5206 262.107 69.6539C261.856 69.7883 261.707 70.005 261.659 70.3041C261.613 70.5963 261.67 70.8284 261.831 71.0002C261.999 71.1732 262.256 71.329 262.604 71.4677L263.761 71.944C264.22 72.1282 264.585 72.308 264.857 72.4835C265.13 72.6522 265.343 72.8916 265.496 73.2015C265.65 73.5047 265.688 73.9009 265.61 74.3903C265.509 75.0293 265.2 75.503 264.685 75.8114C264.169 76.1198 263.493 76.2077 262.657 76.0751L262.157 75.9959ZM267.49 69.2637L268.652 69.4481L267.503 76.6973L266.34 76.513L267.49 69.2637ZM271.417 77.4644C270.914 77.3846 270.477 77.1968 270.105 76.901C269.734 76.6053 269.465 76.2351 269.299 75.7906C269.133 75.3461 269.089 74.8724 269.169 74.3694L269.517 72.1773C269.596 71.6743 269.784 71.2372 270.08 70.866C270.376 70.4948 270.746 70.226 271.19 70.0596C271.635 69.8932 272.109 69.8499 272.612 69.9296L273.519 70.0735C274.029 70.1544 274.469 70.3427 274.841 70.6385C275.212 70.9343 275.481 71.3044 275.647 71.7489C275.813 72.1934 275.857 72.6671 275.777 73.1701L275.429 75.3622C275.35 75.8652 275.158 76.3018 274.856 76.6719C274.56 77.0431 274.19 77.3119 273.745 77.4783C273.301 77.6447 272.827 77.6881 272.324 77.6083L271.417 77.4644ZM272.424 76.4534C272.906 76.5299 273.313 76.4481 273.644 76.2079C273.974 75.9677 274.178 75.6063 274.255 75.1237L274.588 73.0233C274.664 72.5407 274.582 72.1374 274.341 71.8135C274.1 71.4827 273.739 71.2791 273.256 71.2025L272.512 71.0845C272.029 71.008 271.623 71.0898 271.292 71.33C270.969 71.5645 270.769 71.923 270.693 72.4057L270.36 74.506C270.283 74.9886 270.362 75.3947 270.595 75.7244C270.835 76.0552 271.197 76.2588 271.679 76.3354L272.424 76.4534ZM277.432 70.8404L278.594 71.0247L281.024 76.0717L281.405 77.0938L281.611 75.4646L282.224 71.6004L283.386 71.7847L282.237 79.034L281.074 78.8496L278.665 73.8059L278.265 72.7703L278.061 74.3894L277.445 78.274L276.282 78.0897L277.432 70.8404ZM285.944 79.7682C285.149 79.6421 284.557 79.3741 284.169 78.9641C283.782 78.5474 283.613 78.0085 283.662 77.3473C283.664 77.2919 283.676 77.1962 283.697 77.0602L284.88 77.2478C284.814 77.6624 284.896 77.982 285.125 78.2065C285.355 78.431 285.714 78.582 286.203 78.6596L286.693 78.7372C287.134 78.8073 287.484 78.7757 287.742 78.6424C288.002 78.5023 288.157 78.2901 288.209 78.0057C288.26 77.6862 288.198 77.4395 288.024 77.2655C287.857 77.0858 287.58 76.9199 287.193 76.7679L286.034 76.3019C285.581 76.1255 285.224 75.9575 284.964 75.7977C284.71 75.6391 284.51 75.4087 284.363 75.1066C284.215 74.8045 284.181 74.4088 284.258 73.9194C284.362 73.2669 284.664 72.7921 285.164 72.4951C285.665 72.1913 286.34 72.1068 287.19 72.2416L287.536 72.2965C288.325 72.4216 288.906 72.688 289.281 73.0958C289.662 73.5046 289.832 74.0368 289.79 74.6922C289.786 74.7613 289.774 74.8638 289.752 74.9997L288.569 74.8121C288.636 74.3907 288.562 74.0688 288.346 73.8465C288.139 73.6184 287.79 73.4656 287.301 73.388L286.964 73.3346C286.509 73.2624 286.152 73.2929 285.894 73.4262C285.643 73.5606 285.493 73.7773 285.446 74.0764C285.4 74.3687 285.457 74.6007 285.618 74.7726C285.785 74.9455 286.043 75.1013 286.39 75.24L287.548 75.7163C288.007 75.9005 288.372 76.0804 288.644 76.2559C288.916 76.4246 289.129 76.6639 289.282 76.9738C289.436 77.277 289.474 77.6733 289.397 78.1627C289.296 78.8016 288.987 79.2753 288.471 79.5837C287.955 79.8921 287.279 79.9801 286.443 79.8475L285.944 79.7682Z" fill="#ABCE1E"/>
<rect x="0.890773" y="168.29" width="83.0553" height="22.6032" rx="6.12945" transform="rotate(-8.94972 0.890773 168.29)" fill="white"/>
<rect x="0.890773" y="168.29" width="83.0553" height="22.6032" rx="6.12945" transform="rotate(-8.94972 0.890773 168.29)" stroke="#E6E6E6" stroke-width="0.645205"/>
<g clip-path="url(#clip1_162_18195)">
<path d="M14.514 172.729L11.6013 173.194L12.1242 176.471L8.84748 176.993L9.31227 179.906L12.589 179.383L13.1119 182.66L16.0246 182.195L15.5017 178.918L18.7784 178.395L18.3136 175.483L15.0369 176.006L14.514 172.729Z" stroke="#ABCE1E" stroke-width="0.967808" stroke-linecap="round" stroke-linejoin="round"/>
</g>
<path d="M25.5624 172.464L29.2234 171.888C29.7604 171.803 30.2178 171.898 30.5955 172.173C30.9801 172.447 31.213 172.842 31.2944 173.359L31.3313 173.593C31.3848 173.933 31.3668 174.239 31.2773 174.511C31.1945 174.782 31.0454 175.007 30.8299 175.188C31.1458 175.291 31.4044 175.473 31.6058 175.734C31.8128 175.987 31.9474 176.311 32.0095 176.705L32.0545 176.991C32.1412 177.542 32.0346 178.015 31.7346 178.41C31.4335 178.799 30.9941 179.039 30.4162 179.13L26.7043 179.715L25.5624 172.464ZM30.1376 178.024C30.3891 177.985 30.5841 177.874 30.7227 177.692C30.868 177.509 30.9198 177.285 30.878 177.019L30.8379 176.764C30.7961 176.499 30.678 176.302 30.4834 176.172C30.2945 176.035 30.0743 175.986 29.8228 176.026L27.3652 176.413L27.6799 178.411L30.1376 178.024ZM29.4776 174.962C29.7223 174.923 29.914 174.813 30.0525 174.631C30.1978 174.448 30.2502 174.227 30.2095 173.969L30.1742 173.744C30.1335 173.486 30.0164 173.295 29.8229 173.173C29.6351 173.042 29.4188 172.996 29.1741 173.034L26.8898 173.394L27.1933 175.322L29.4776 174.962ZM35.9792 178.4C35.4762 178.479 35.0025 178.436 34.5582 178.269C34.1139 178.102 33.744 177.833 33.4486 177.461C33.1532 177.09 32.9659 176.652 32.8867 176.149L32.5414 173.957C32.4622 173.454 32.506 172.98 32.6729 172.536C32.8399 172.091 33.1091 171.722 33.4806 171.426C33.8521 171.131 34.2894 170.943 34.7924 170.864L35.7 170.721C36.2099 170.641 36.687 170.684 37.1313 170.851C37.5756 171.018 37.9455 171.287 38.2408 171.659C38.5362 172.03 38.7235 172.468 38.8028 172.971L39.148 175.163C39.2273 175.666 39.18 176.14 39.0063 176.586C38.8394 177.03 38.5702 177.4 38.1987 177.695C37.8272 177.991 37.3899 178.178 36.8868 178.257L35.9792 178.4ZM36.6254 177.128C37.1081 177.052 37.4697 176.849 37.7103 176.518C37.9508 176.188 38.0331 175.781 37.9571 175.298L37.6263 173.198C37.5502 172.715 37.3475 172.357 37.0181 172.123C36.6876 171.883 36.281 171.8 35.7983 171.876L35.0539 171.993C34.5712 172.069 34.2096 172.273 33.969 172.603C33.7342 172.926 33.6548 173.329 33.7308 173.811L34.0616 175.912C34.1376 176.395 34.3375 176.757 34.6612 176.998C34.9917 177.239 35.3983 177.321 35.881 177.245L36.6254 177.128ZM43.3112 177.246C42.8081 177.325 42.3344 177.281 41.8901 177.114C41.4458 176.947 41.0759 176.678 40.7805 176.306C40.4852 175.935 40.2979 175.498 40.2186 174.995L39.8733 172.802C39.7941 172.299 39.838 171.825 40.0049 171.381C40.1718 170.937 40.441 170.567 40.8125 170.271C41.184 169.976 41.6213 169.789 42.1244 169.71L43.0319 169.567C43.5418 169.486 44.0189 169.53 44.4632 169.697C44.9075 169.863 45.2774 170.133 45.5728 170.504C45.8681 170.876 46.0554 171.313 46.1347 171.816L46.48 174.008C46.5592 174.512 46.5119 174.986 46.3382 175.431C46.1713 175.875 45.9021 176.245 45.5306 176.541C45.1591 176.836 44.7218 177.023 44.2188 177.103L43.3112 177.246ZM43.9573 175.973C44.44 175.897 44.8016 175.694 45.0422 175.364C45.2827 175.033 45.365 174.626 45.289 174.144L44.9582 172.043C44.8822 171.56 44.6794 171.202 44.35 170.968C44.0195 170.728 43.6129 170.646 43.1302 170.722L42.3858 170.839C41.9031 170.915 41.5415 171.118 41.3009 171.449C41.0661 171.771 40.9867 172.174 41.0627 172.657L41.3935 174.757C41.4695 175.24 41.6694 175.602 41.9931 175.844C42.3236 176.084 42.7302 176.167 43.2129 176.091L43.9573 175.973ZM50.3993 176.129C49.6039 176.255 48.9585 176.182 48.463 175.912C47.9665 175.635 47.6397 175.174 47.4825 174.53C47.4672 174.477 47.4488 174.382 47.4274 174.246L48.6103 174.06C48.6756 174.474 48.8519 174.753 49.1391 174.896C49.4264 175.039 49.8147 175.072 50.3042 174.995L50.7937 174.918C51.2356 174.848 51.5587 174.71 51.7631 174.504C51.9664 174.291 52.049 174.041 52.0108 173.754C51.9605 173.435 51.8255 173.219 51.6059 173.107C51.392 172.988 51.0775 172.915 50.6625 172.89L49.4158 172.804C48.9307 172.776 48.5396 172.726 48.2427 172.654C47.9525 172.582 47.6909 172.424 47.4577 172.182C47.2245 171.94 47.0694 171.575 46.9923 171.085C46.8895 170.433 47.0302 169.888 47.4143 169.451C47.7973 169.008 48.4137 168.719 49.2635 168.585L49.6102 168.531C50.3988 168.406 51.034 168.481 51.5159 168.753C52.0045 169.024 52.3303 169.478 52.4932 170.114C52.5107 170.181 52.5301 170.283 52.5515 170.419L51.3686 170.605C51.3022 170.184 51.1322 169.9 50.8586 169.755C50.5906 169.602 50.2119 169.565 49.7225 169.642L49.3859 169.695C48.9304 169.766 48.6005 169.905 48.3961 170.112C48.1985 170.317 48.1233 170.569 48.1704 170.868C48.2164 171.161 48.3425 171.364 48.5485 171.478C48.7614 171.59 49.0544 171.659 49.4275 171.684L50.6758 171.78C51.1688 171.814 51.5717 171.872 51.8844 171.956C52.196 172.032 52.4723 172.194 52.7133 172.442C52.9533 172.682 53.1118 173.048 53.1889 173.537C53.2896 174.176 53.1421 174.722 52.7466 175.174C52.3511 175.627 51.7352 175.919 50.899 176.051L50.3993 176.129ZM55.2776 168.934L52.9424 169.302L52.7657 168.18L58.609 167.26L58.7856 168.381L56.4402 168.751L57.4054 174.88L56.2428 175.063L55.2776 168.934ZM59.4934 167.12L64.5004 166.332L64.6754 167.443L60.8309 168.049L61.1361 169.986L64.6542 169.432L64.8261 170.524L61.3079 171.078L61.6195 173.056L65.5048 172.444L65.683 173.576L60.6352 174.371L59.4934 167.12ZM69.035 165.618C69.4226 165.557 69.7905 165.593 70.139 165.726C70.4863 165.853 70.7764 166.058 71.0092 166.342C71.242 166.625 71.3889 166.961 71.45 167.349L71.5415 167.93C71.6207 168.433 71.5613 168.874 71.3633 169.254C71.1643 169.626 70.8317 169.926 70.3658 170.153L70.9195 170.682L72.6243 172.483L71.2476 172.7L69.156 170.5L67.5958 170.746L67.9844 173.214L66.8219 173.397L65.68 166.146L69.035 165.618ZM69.4736 169.332C69.8136 169.278 70.0603 169.142 70.2139 168.923C70.3664 168.697 70.4148 168.407 70.3591 168.053L70.3013 167.686C70.2457 167.333 70.1111 167.075 69.8975 166.914C69.684 166.752 69.4039 166.699 69.0571 166.753L67.0176 167.075L67.4239 169.655L69.4736 169.332ZM75.7834 172.132C74.988 172.257 74.3425 172.184 73.8471 171.914C73.3506 171.637 73.0238 171.176 72.8666 170.532C72.8512 170.479 72.8328 170.384 72.8114 170.248L73.9944 170.062C74.0597 170.477 74.2359 170.756 74.5232 170.898C74.8104 171.041 75.1988 171.074 75.6883 170.997L76.1778 170.92C76.6197 170.85 76.9428 170.712 77.1472 170.506C77.3505 170.293 77.4331 170.043 77.3949 169.756C77.3446 169.437 77.2096 169.221 76.99 169.11C76.7761 168.99 76.4616 168.918 76.0466 168.892L74.7999 168.807C74.3147 168.778 73.9237 168.729 73.6268 168.657C73.3366 168.584 73.075 168.427 72.8418 168.185C72.6086 167.943 72.4535 167.577 72.3764 167.088C72.2736 166.435 72.4142 165.89 72.7983 165.454C73.1813 165.01 73.7977 164.721 74.6475 164.588L74.9943 164.533C75.7829 164.409 76.4181 164.483 76.8999 164.755C77.3886 165.027 77.7143 165.481 77.8772 166.117C77.8947 166.184 77.9142 166.285 77.9356 166.421L76.7527 166.607C76.6863 166.186 76.5163 165.903 76.2426 165.758C75.9747 165.605 75.596 165.567 75.1065 165.644L74.77 165.697C74.3145 165.769 73.9846 165.908 73.7802 166.114C73.5826 166.319 73.5074 166.572 73.5545 166.871C73.6005 167.163 73.7266 167.366 73.9326 167.48C74.1454 167.593 74.4384 167.662 74.8116 167.686L76.0599 167.783C76.5529 167.816 76.9558 167.875 77.2684 167.958C77.58 168.034 77.8564 168.196 78.0974 168.444C78.3374 168.685 78.4959 169.05 78.573 169.54C78.6736 170.179 78.5262 170.724 78.1307 171.177C77.7351 171.629 77.1193 171.921 76.283 172.053L75.7834 172.132Z" fill="#ABCE1E"/>
<rect x="221.135" y="129.077" width="81.0553" height="22.6032" rx="6.12945" transform="rotate(0.537784 221.135 129.077)" fill="white"/>
<rect x="221.135" y="129.077" width="81.0553" height="22.6032" rx="6.12945" transform="rotate(0.537784 221.135 129.077)" stroke="#E6E6E6" stroke-width="0.645205"/>
<g clip-path="url(#clip2_162_18195)">
<path d="M233.84 135.701L230.891 135.679L230.866 138.997L227.548 138.973L227.527 141.922L230.845 141.947L230.82 145.265L233.77 145.287L233.794 141.968L237.112 141.993L237.134 139.043L233.816 139.019L233.84 135.701Z" stroke="#ABCE1E" stroke-width="0.967808" stroke-linecap="round" stroke-linejoin="round"/>
</g>
<path d="M248.534 137.296C248.927 137.3 249.284 137.396 249.605 137.585C249.927 137.767 250.18 138.017 250.362 138.335C250.545 138.653 250.635 139.009 250.631 139.401L250.626 139.989C250.621 140.499 250.489 140.924 250.232 141.266C249.974 141.601 249.596 141.841 249.1 141.988L249.558 142.602L250.943 144.659L249.549 144.646L247.849 142.131L246.27 142.116L246.246 144.615L245.069 144.604L245.138 137.264L248.534 137.296ZM248.355 141.031C248.699 141.035 248.965 140.941 249.152 140.75C249.34 140.552 249.436 140.274 249.439 139.916L249.443 139.545C249.446 139.187 249.356 138.911 249.172 138.716C248.988 138.522 248.72 138.423 248.369 138.42L246.305 138.4L246.28 141.012L248.355 141.031ZM251.875 137.327L256.943 137.375L256.933 138.5L253.041 138.463L253.023 140.425L256.584 140.458L256.574 141.563L253.012 141.529L252.993 143.532L256.926 143.569L256.916 144.715L251.806 144.667L251.875 137.327ZM257.507 137.38L258.766 137.392L260.215 141.473L260.736 143.13L262.469 138.882L261.894 137.421L263.164 137.433L265.319 143.193L265.892 141.516L267.427 137.473L268.687 137.485L265.903 144.799L264.736 144.788L263.446 141.421L263.065 140.292L262.662 141.413L261.278 144.756L260.122 144.745L257.507 137.38ZM270.804 137.505L272.064 137.517L274.937 144.884L273.667 144.872L273.033 143.194L269.729 143.163L269.043 144.829L267.773 144.817L270.804 137.505ZM272.671 142.086L271.422 138.822L270.111 142.062L272.671 142.086ZM279.19 137.584C279.582 137.587 279.939 137.684 280.261 137.872C280.583 138.054 280.835 138.305 281.018 138.623C281.201 138.941 281.29 139.296 281.287 139.689L281.281 140.277C281.276 140.786 281.145 141.212 280.887 141.554C280.629 141.888 280.252 142.129 279.755 142.276L280.214 142.889L281.599 144.946L280.205 144.933L278.505 142.419L276.925 142.404L276.902 144.902L275.725 144.891L275.794 137.552L279.19 137.584ZM279.01 141.319C279.355 141.322 279.62 141.229 279.808 141.038C279.996 140.84 280.091 140.562 280.095 140.204L280.098 139.832C280.101 139.475 280.011 139.198 279.827 139.004C279.643 138.81 279.376 138.711 279.025 138.707L276.96 138.688L276.936 141.3L279.01 141.319ZM282.53 137.615L285.803 137.646C286.326 137.651 286.793 137.772 287.203 138.01C287.614 138.241 287.935 138.56 288.165 138.969C288.395 139.377 288.508 139.836 288.503 140.345L288.484 142.337C288.479 142.846 288.355 143.303 288.11 143.707C287.872 144.111 287.546 144.428 287.131 144.658C286.716 144.881 286.25 144.99 285.734 144.985L282.461 144.955L282.53 137.615ZM285.683 143.829C286.171 143.833 286.558 143.699 286.843 143.426C287.134 143.147 287.283 142.763 287.287 142.274L287.305 140.375C287.31 139.886 287.169 139.503 286.882 139.225C286.603 138.94 286.219 138.796 285.73 138.791L283.696 138.772L283.649 143.809L285.683 143.829ZM292.013 145.189C291.208 145.181 290.583 145.003 290.139 144.655C289.695 144.3 289.449 143.792 289.4 143.13C289.393 143.075 289.391 142.979 289.392 142.841L290.589 142.853C290.586 143.272 290.713 143.576 290.973 143.765C291.233 143.953 291.611 144.049 292.106 144.054L292.602 144.059C293.049 144.063 293.39 143.98 293.626 143.81C293.862 143.633 293.984 143.401 293.994 143.112C293.997 142.788 293.899 142.553 293.701 142.407C293.51 142.254 293.212 142.13 292.806 142.037L291.591 141.747C291.117 141.639 290.74 141.526 290.459 141.406C290.184 141.286 289.952 141.088 289.762 140.811C289.572 140.534 289.479 140.148 289.484 139.652C289.49 138.991 289.719 138.477 290.169 138.11C290.62 137.736 291.276 137.553 292.136 137.561L292.487 137.564C293.285 137.571 293.9 137.749 294.33 138.097C294.767 138.446 295.014 138.947 295.07 139.601C295.076 139.67 295.078 139.773 295.077 139.911L293.88 139.9C293.884 139.473 293.763 139.166 293.517 138.978C293.277 138.783 292.91 138.683 292.415 138.678L292.074 138.675C291.613 138.671 291.265 138.753 291.029 138.923C290.8 139.093 290.685 139.33 290.682 139.632C290.679 139.928 290.77 140.149 290.954 140.296C291.146 140.442 291.423 140.558 291.787 140.644L293.003 140.945C293.483 141.059 293.871 141.183 294.166 141.317C294.46 141.444 294.706 141.649 294.903 141.933C295.1 142.21 295.196 142.596 295.192 143.092C295.186 143.739 294.95 144.253 294.485 144.634C294.021 145.015 293.365 145.201 292.519 145.193L292.013 145.189Z" fill="#ABCE1E"/>
<rect x="43.4209" y="40.1219" width="86.2651" height="27.813" rx="6.12945" transform="rotate(-6.2331 43.4209 40.1219)" fill="white"/>
<rect x="43.4209" y="40.1219" width="86.2651" height="27.813" rx="6.12945" transform="rotate(-6.2331 43.4209 40.1219)" stroke="#E6E6E6" stroke-width="0.645205"/>
<g clip-path="url(#clip3_162_18195)">
<path d="M61.2102 52.1561L56.2648 52.7186C55.6578 52.7877 55.2218 53.3357 55.2908 53.9426L55.8533 58.888C55.9224 59.495 56.4704 59.931 57.0773 59.862L62.0227 59.2994C62.6297 59.2304 63.0658 58.6824 62.9967 58.0754L62.4342 53.13C62.3651 52.5231 61.8171 52.087 61.2102 52.1561Z" stroke="#ABCE1E" stroke-width="0.967808" stroke-linecap="round" stroke-linejoin="round"/>
<path d="M59.2708 57.1168L60.3698 56.9918" stroke="#ABCE1E" stroke-width="0.967808" stroke-linecap="round" stroke-linejoin="round"/>
<path d="M64.4093 48.47C64.5092 48.4578 64.6038 48.4186 64.6831 48.3567C64.7624 48.2947 64.8233 48.2122 64.8591 48.1183C64.9036 48.0286 64.9212 47.928 64.9099 47.8286C64.8986 47.7292 64.8588 47.6352 64.7954 47.5578C63.9276 46.6418 62.8452 45.9567 61.646 45.5644C60.4468 45.1721 59.1687 45.085 57.9274 45.3111C56.6731 45.3746 55.4541 45.7484 54.3799 46.3991C53.3056 47.0498 52.4097 47.9569 51.7725 49.0392C51.728 49.1288 51.7104 49.2294 51.7217 49.3288C51.733 49.4282 51.7728 49.5223 51.8362 49.5996C51.889 49.6788 51.9613 49.7429 52.0462 49.7859C52.131 49.8289 52.2255 49.8493 52.3206 49.8451L64.4093 48.47Z" stroke="#ABCE1E" stroke-width="0.967808" stroke-linecap="round" stroke-linejoin="round"/>
<path d="M58.7388 52.4464L58.3638 49.1494" stroke="#ABCE1E" stroke-width="0.967808" stroke-linecap="round" stroke-linejoin="round"/>
<path d="M55.9915 52.7582L52.869 49.7738" stroke="#ABCE1E" stroke-width="0.967808" stroke-linecap="round" stroke-linejoin="round"/>
<path d="M61.4868 52.1339L63.8593 48.5244" stroke="#ABCE1E" stroke-width="0.967808" stroke-linecap="round" stroke-linejoin="round"/>
</g>
<path d="M75.9505 47.1984L77.2025 47.0617L80.9242 54.0387L79.6619 54.1766L78.8338 52.5847L75.5499 52.9434L75.0644 54.6787L73.8022 54.8166L75.9505 47.1984ZM78.3445 51.527L76.7189 48.4334L75.7994 51.805L78.3445 51.527ZM80.9107 46.6567L82.0806 46.5289L82.8775 53.8254L81.7076 53.9532L80.9107 46.6567ZM86.915 46.0009C87.305 45.9583 87.6709 46.0118 88.0126 46.1614C88.3536 46.3042 88.6336 46.5228 88.8527 46.8174C89.0718 47.1119 89.2026 47.4542 89.2452 47.8441L89.3091 48.4291C89.3644 48.9353 89.2842 49.3733 89.0684 49.7431C88.8519 50.1059 88.5055 50.3895 88.0294 50.5939L88.5573 51.1489L90.1749 53.0284L88.7895 53.1797L86.8045 50.8834L85.2343 51.0549L85.5056 53.5384L84.3357 53.6661L83.5388 46.3697L86.915 46.0009ZM87.1771 49.7315C87.5192 49.6942 87.7721 49.5696 87.9359 49.3579C88.099 49.1393 88.1611 48.8521 88.1222 48.4964L88.0819 48.1269C88.043 47.7712 87.9208 47.5076 87.7151 47.3362C87.5095 47.1648 87.2322 47.0982 86.8833 47.1363L84.8308 47.3605L85.1144 49.9568L87.1771 49.7315ZM90.2357 45.6382L93.4888 45.2829C94.0088 45.2261 94.4867 45.2916 94.9226 45.4794C95.3578 45.6603 95.7137 45.9399 95.9904 46.3182C96.2671 46.6964 96.4331 47.1387 96.4884 47.645L96.7047 49.6256C96.76 50.1318 96.6899 50.5999 96.4946 51.0297C96.306 51.4587 96.0192 51.812 95.6342 52.0894C95.2483 52.36 94.7989 52.5234 94.2857 52.5794L91.0326 52.9347L90.2357 45.6382ZM94.0986 51.4367C94.5844 51.3837 94.9526 51.205 95.2032 50.9007C95.4599 50.5888 95.5617 50.19 95.5087 49.7043L95.3024 47.816C95.2494 47.3303 95.0642 46.9663 94.747 46.724C94.4359 46.4741 94.0374 46.3757 93.5517 46.4288L91.53 46.6496L92.077 51.6576L94.0986 51.4367ZM100.85 44.4789C101.24 44.4363 101.606 44.4899 101.948 44.6395C102.289 44.7822 102.569 45.0009 102.788 45.2954C103.007 45.5899 103.138 45.9322 103.18 46.3221L103.244 46.9071C103.299 47.4134 103.219 47.8514 103.003 48.2211C102.787 48.584 102.441 48.8676 101.964 49.0719L102.492 49.6269L104.11 51.5064L102.725 51.6577L100.739 49.3614L99.1694 49.5329L99.4406 52.0164L98.2707 52.1442L97.4738 44.8477L100.85 44.4789ZM101.112 48.2096C101.454 48.1722 101.707 48.0477 101.871 47.8359C102.034 47.6173 102.096 47.3302 102.057 46.9744L102.017 46.605C101.978 46.2492 101.856 45.9856 101.65 45.8143C101.445 45.6429 101.167 45.5762 100.818 45.6143L98.7659 45.8385L99.0494 48.4349L101.112 48.2096ZM107.487 51.2829C106.981 51.3382 106.51 51.272 106.074 51.0842C105.638 50.8964 105.281 50.61 105.004 50.2249C104.727 49.8398 104.56 49.3941 104.505 48.8879L104.264 46.6815C104.209 46.1752 104.275 45.7041 104.463 45.2682C104.65 44.8323 104.937 44.4757 105.322 44.1982C105.707 43.9208 106.153 43.7544 106.659 43.6991L107.572 43.5994C108.085 43.5433 108.56 43.6092 108.996 43.797C109.432 43.9847 109.788 44.2712 110.066 44.6563C110.343 45.0413 110.51 45.487 110.565 45.9933L110.806 48.1997C110.861 48.7059 110.792 49.1774 110.597 49.614C110.409 50.0499 110.123 50.4066 109.738 50.6841C109.353 50.9615 108.907 51.1279 108.401 51.1832L107.487 51.2829ZM108.193 50.0428C108.679 49.9897 109.05 49.8038 109.306 49.4851C109.562 49.1664 109.663 48.7641 109.61 48.2784L109.379 46.1644C109.326 45.6786 109.14 45.3112 108.823 45.0621C108.504 44.8061 108.102 44.7046 107.616 44.7577L106.867 44.8395C106.381 44.8926 106.01 45.0785 105.754 45.3972C105.504 45.7083 105.406 46.1068 105.459 46.5925L105.69 48.7065C105.743 49.1923 105.925 49.5635 106.237 49.8202C106.556 50.0762 106.958 50.1776 107.444 50.1246L108.193 50.0428ZM114.966 42.9372C115.363 42.8938 115.736 42.9466 116.085 43.0954C116.433 43.2443 116.717 43.4694 116.937 43.7708C117.164 44.0714 117.298 44.4167 117.341 44.8067L117.424 45.5661C117.468 45.9697 117.413 46.3496 117.258 46.7058C117.109 47.0544 116.881 47.3423 116.573 47.5698C116.273 47.7965 115.924 47.9315 115.527 47.9748L113.27 48.2317L113.516 50.4791L112.346 50.6069L111.549 43.3104L114.966 42.9372ZM113.147 47.1028L115.26 46.8617C115.616 46.8228 115.879 46.6937 116.049 46.4744C116.218 46.2551 116.284 45.9641 116.244 45.6015L116.188 45.0884C116.148 44.7258 116.022 44.4557 115.809 44.2783C115.595 44.1008 115.311 44.0315 114.955 44.0703L112.841 44.3012L113.147 47.1028ZM121.167 49.7888C120.367 49.8763 119.725 49.7732 119.243 49.4797C118.76 49.1794 118.456 48.7038 118.329 48.053C118.316 47.999 118.303 47.9036 118.288 47.7668L119.478 47.6367C119.524 48.0541 119.687 48.3409 119.967 48.4972C120.247 48.6536 120.633 48.7048 121.126 48.651L121.618 48.5972C122.063 48.5486 122.392 48.4261 122.606 48.2297C122.82 48.0264 122.914 47.7807 122.889 47.4926C122.854 47.1711 122.73 46.9493 122.515 46.8273C122.307 46.6977 121.997 46.6105 121.583 46.5656L120.342 46.4208C119.859 46.3698 119.471 46.3014 119.177 46.2157C118.891 46.1293 118.637 45.9597 118.416 45.707C118.194 45.4542 118.057 45.0816 118.003 44.589C117.931 43.9322 118.097 43.3948 118.502 42.9768C118.905 42.5519 119.535 42.2928 120.39 42.1994L120.739 42.1613C121.533 42.0746 122.164 42.1788 122.632 42.4738C123.107 42.768 123.411 43.2368 123.544 43.88C123.558 43.9477 123.573 44.0499 123.587 44.1867L122.397 44.3168C122.351 43.8926 122.194 43.6016 121.928 43.4438C121.667 43.2784 121.291 43.2226 120.798 43.2764L120.46 43.3133C120.001 43.3634 119.665 43.4867 119.451 43.6831C119.244 43.8788 119.157 44.1272 119.19 44.4282C119.222 44.7224 119.338 44.9312 119.539 45.0547C119.746 45.1775 120.035 45.2601 120.407 45.3026L121.649 45.4577C122.14 45.5148 122.54 45.5923 122.848 45.6902C123.156 45.7812 123.424 45.9561 123.653 46.215C123.882 46.467 124.023 46.8392 124.076 47.3318C124.147 47.9749 123.973 48.5131 123.557 48.9463C123.14 49.3795 122.511 49.642 121.67 49.7339L121.167 49.7888Z" fill="#ABCE1E"/>
<rect x="123.935" y="202.509" width="97.2872" height="27.8352" rx="6.12945" transform="rotate(8.79822 123.935 202.509)" fill="white"/>
<rect x="123.935" y="202.509" width="97.2872" height="27.8352" rx="6.12945" transform="rotate(8.79822 123.935 202.509)" stroke="#E6E6E6" stroke-width="0.645205"/>
<g clip-path="url(#clip4_162_18195)">
<path d="M132.624 217.924L132.218 220.448" stroke="#ABCE1E" stroke-width="0.967808" stroke-linecap="round" stroke-linejoin="round"/>
<path d="M133.683 219.389L131.16 218.983" stroke="#ABCE1E" stroke-width="0.967808" stroke-linecap="round" stroke-linejoin="round"/>
<path d="M133.883 215.352L132.882 215.191C131.212 214.922 129.608 215.952 129.157 217.581L128.055 221.56C127.654 223.011 128.602 224.488 130.088 224.727C131.032 224.879 131.981 224.484 132.539 223.708L133.058 222.986L136.302 223.508L136.569 224.356C136.855 225.268 137.633 225.941 138.577 226.093C140.063 226.332 141.426 225.226 141.5 223.723L141.701 219.599" stroke="#ABCE1E" stroke-width="0.967808" stroke-linecap="round" stroke-linejoin="round"/>
<path d="M137.051 220.578C137.075 220.429 137.216 220.327 137.365 220.351C137.515 220.375 137.616 220.516 137.592 220.665" stroke="#ABCE1E" stroke-width="0.967808" stroke-linecap="round" stroke-linejoin="round"/>
<path d="M137.051 220.579C137.027 220.728 137.129 220.869 137.278 220.893C137.427 220.917 137.568 220.815 137.592 220.666" stroke="#ABCE1E" stroke-width="0.967808" stroke-linecap="round" stroke-linejoin="round"/>
<path d="M136.279 215.14C135.907 215.012 135.995 214.461 136.389 214.456C137.817 214.438 139.091 213.558 139.614 212.23L139.654 212.128C139.798 211.763 140.337 211.847 140.363 212.239L140.371 212.367C140.463 213.787 141.399 215.013 142.745 215.477C143.119 215.606 143.03 216.159 142.634 216.164C141.211 216.182 139.938 217.053 139.405 218.373L139.357 218.491C139.21 218.855 138.671 218.766 138.649 218.374L138.643 218.265C138.563 216.84 137.629 215.605 136.279 215.14Z" stroke="#ABCE1E" stroke-width="0.967808" stroke-linecap="round" stroke-linejoin="round"/>
</g>
<path d="M152.211 225.162C151.416 225.039 150.823 224.773 150.434 224.365C150.045 223.95 149.874 223.411 149.921 222.75C149.923 222.695 149.934 222.599 149.955 222.463L151.138 222.646C151.074 223.061 151.157 223.38 151.387 223.604C151.617 223.827 151.977 223.977 152.467 224.053L152.956 224.129C153.398 224.197 153.748 224.164 154.006 224.03C154.264 223.889 154.419 223.676 154.47 223.391C154.52 223.072 154.457 222.825 154.282 222.652C154.114 222.473 153.837 222.308 153.449 222.157L152.288 221.696C151.835 221.521 151.478 221.354 151.217 221.196C150.962 221.038 150.761 220.808 150.613 220.507C150.465 220.205 150.428 219.81 150.504 219.32C150.605 218.667 150.905 218.191 151.404 217.892C151.904 217.587 152.579 217.5 153.429 217.631L153.776 217.685C154.565 217.807 155.147 218.071 155.523 218.478C155.906 218.885 156.078 219.417 156.039 220.072C156.035 220.141 156.023 220.244 156.002 220.38L154.818 220.197C154.884 219.775 154.808 219.453 154.592 219.232C154.383 219.004 154.034 218.853 153.544 218.777L153.208 218.725C152.752 218.655 152.395 218.686 152.138 218.821C151.887 218.956 151.738 219.173 151.692 219.472C151.647 219.765 151.705 219.997 151.867 220.168C152.035 220.34 152.293 220.495 152.641 220.633L153.8 221.105C154.26 221.287 154.626 221.466 154.898 221.64C155.171 221.808 155.385 222.046 155.539 222.356C155.694 222.658 155.734 223.054 155.658 223.544C155.559 224.183 155.253 224.658 154.738 224.968C154.223 225.279 153.548 225.369 152.711 225.24L152.211 225.162ZM158.585 223.443L156.516 218.255L157.862 218.464L158.897 221.026L159.344 222.318L160.172 221.224L161.923 219.092L163.259 219.299L159.75 223.613L159.361 226.123L158.198 225.943L158.585 223.443ZM163.977 219.41L165.14 219.59L167.588 224.628L167.974 225.649L168.174 224.019L168.772 220.152L169.935 220.332L168.813 227.586L167.65 227.406L165.222 222.371L164.818 221.337L164.619 222.957L164.018 226.844L162.855 226.663L163.977 219.41ZM171.382 220.556L174.616 221.057C175.133 221.137 175.577 221.324 175.95 221.618C176.323 221.906 176.594 222.268 176.763 222.705C176.933 223.142 176.978 223.612 176.9 224.116L176.596 226.085C176.518 226.588 176.329 227.022 176.029 227.386C175.735 227.752 175.367 228.019 174.923 228.187C174.48 228.348 174.003 228.389 173.493 228.31L170.259 227.81L171.382 220.556ZM173.609 227.158C174.092 227.233 174.494 227.156 174.815 226.927C175.144 226.692 175.345 226.333 175.42 225.851L175.711 223.973C175.785 223.491 175.701 223.091 175.457 222.775C175.222 222.453 174.862 222.254 174.38 222.18L172.37 221.868L171.599 226.847L173.609 227.158ZM178.578 221.67L179.741 221.85L178.618 229.103L177.455 228.923L178.578 221.67ZM182.535 229.856C182.031 229.778 181.594 229.592 181.221 229.297C180.849 229.003 180.579 228.634 180.411 228.19C180.243 227.746 180.198 227.272 180.275 226.769L180.615 224.576C180.693 224.072 180.879 223.635 181.173 223.262C181.468 222.89 181.837 222.62 182.281 222.452C182.725 222.284 183.198 222.239 183.701 222.317L184.385 222.422C184.922 222.506 185.373 222.701 185.736 223.008C186.107 223.309 186.37 223.68 186.525 224.122C186.679 224.564 186.719 225.026 186.644 225.509L185.481 225.329C185.547 224.859 185.458 224.465 185.215 224.149C184.979 223.827 184.626 223.63 184.157 223.557L183.596 223.47C183.113 223.396 182.71 223.479 182.387 223.722C182.065 223.958 181.867 224.317 181.792 224.8L181.468 226.891C181.394 227.374 181.474 227.78 181.708 228.109C181.95 228.439 182.308 228.64 182.784 228.714L183.346 228.801C183.822 228.875 184.221 228.794 184.543 228.558C184.871 228.323 185.073 227.968 185.146 227.492L186.32 227.673C186.242 228.177 186.058 228.618 185.77 228.998C185.489 229.373 185.126 229.647 184.681 229.822C184.236 229.997 183.749 230.044 183.218 229.962L182.535 229.856ZM190.142 223.46L191.387 223.652L193.172 231.356L191.917 231.162L191.53 229.409L188.265 228.904L187.346 230.454L186.091 230.26L190.142 223.46ZM191.331 228.261L190.564 224.852L188.801 227.869L191.331 228.261ZM195.718 225.472L193.382 225.11L193.555 223.988L199.401 224.893L199.227 226.015L196.881 225.652L195.932 231.783L194.769 231.603L195.718 225.472ZM200.286 225.03L205.295 225.805L205.123 226.917L201.277 226.322L200.977 228.26L204.496 228.805L204.327 229.896L200.808 229.352L200.501 231.331L204.388 231.932L204.213 233.065L199.163 232.283L200.286 225.03ZM207.616 233.738C206.82 233.614 206.227 233.349 205.838 232.94C205.449 232.525 205.278 231.987 205.325 231.325C205.327 231.27 205.338 231.174 205.359 231.038L206.543 231.221C206.478 231.636 206.561 231.955 206.791 232.179C207.021 232.403 207.381 232.552 207.871 232.628L208.361 232.704C208.803 232.772 209.152 232.739 209.41 232.605C209.669 232.464 209.823 232.251 209.874 231.967C209.924 231.647 209.861 231.401 209.686 231.227C209.519 231.048 209.241 230.883 208.854 230.733L207.692 230.271C207.239 230.096 206.882 229.93 206.621 229.771C206.367 229.613 206.165 229.383 206.017 229.082C205.869 228.78 205.832 228.385 205.908 227.895C206.009 227.242 206.309 226.766 206.808 226.468C207.308 226.162 207.983 226.075 208.833 226.206L209.18 226.26C209.969 226.382 210.552 226.646 210.927 227.053C211.31 227.46 211.482 227.992 211.443 228.647C211.44 228.716 211.427 228.819 211.406 228.955L210.223 228.772C210.288 228.35 210.212 228.029 209.996 227.807C209.787 227.58 209.438 227.428 208.949 227.352L208.612 227.3C208.156 227.23 207.8 227.262 207.542 227.396C207.291 227.531 207.143 227.748 207.096 228.048C207.051 228.34 207.109 228.572 207.271 228.743C207.439 228.916 207.697 229.07 208.045 229.208L209.205 229.68C209.664 229.862 210.03 230.041 210.302 230.215C210.576 230.383 210.789 230.621 210.944 230.931C211.099 231.233 211.138 231.63 211.063 232.119C210.964 232.759 210.657 233.233 210.142 233.544C209.628 233.854 208.952 233.945 208.115 233.815L207.616 233.738Z" fill="#ABCE1E"/>
<g filter="url(#filter0_f_162_18195)">
<circle cx="147.055" cy="126.207" r="84.3405" fill="#B4B4B4"/>
</g>
<path d="M234.712 194.841C252.697 168.296 230.878 122.022 185.977 91.4839C141.077 60.946 90.098 57.7086 72.1129 84.253C54.1278 110.797 75.9471 157.072 120.848 187.61C165.748 218.148 216.727 221.385 234.712 194.841Z" fill="black" stroke="black" stroke-width="0.645205" stroke-linecap="round" stroke-linejoin="round"/>
<path d="M80.9871 112.565L81.5039 112.121L81.0611 111.603L80.5442 112.047L80.9871 112.565Z" fill="white"/>
<path d="M71.9582 108.677L72.6234 108.106L72.0534 107.44L71.3883 108.011L71.9582 108.677Z" fill="white"/>
<path d="M99.0161 121.004L99.6813 120.433L99.1114 119.767L98.4462 120.338L99.0161 121.004Z" fill="white"/>
<path d="M101.474 122.799L102.14 122.228L101.57 121.562L100.905 122.133L101.474 122.799Z" fill="white"/>
<path d="M81.3871 129.942L81.8135 130.041L81.9132 129.614L81.4867 129.514L81.3871 129.942Z" fill="white"/>
<path d="M106.927 118.581L107.235 118.653L107.307 118.344L106.999 118.272L106.927 118.581Z" fill="white"/>
<path d="M68.5384 113.047L69.1125 113.046L69.111 112.47L68.5369 112.472L68.5384 113.047Z" fill="white"/>
<path d="M87.458 138.492L87.9749 138.048L87.532 137.53L87.0152 137.974L87.458 138.492Z" fill="white"/>
<path d="M115.964 129.514L116.629 128.943L116.059 128.276L115.394 128.847L115.964 129.514Z" fill="white"/>
<path d="M93.8428 117.697L94.4169 117.695L94.4154 117.12L93.8413 117.122L93.8428 117.697Z" fill="white"/>
<path d="M107.71 123.405L108.284 123.404L108.282 122.828L107.708 122.83L107.71 123.405Z" fill="white"/>
<path d="M86.911 126.105L87.485 126.103L87.4835 125.528L86.9094 125.53L86.911 126.105Z" fill="white"/>
<path d="M78.9524 126.523L79.5265 126.521L79.525 125.946L78.9509 125.947L78.9524 126.523Z" fill="white"/>
<path d="M83.6788 120.67L84.2529 120.669L84.2514 120.094L83.6773 120.095L83.6788 120.67Z" fill="white"/>
<path d="M197.35 132.495L197.867 132.051L197.424 131.534L196.907 131.977L197.35 132.495Z" fill="white"/>
<path d="M199.35 134.988L200.015 134.417L199.445 133.75L198.78 134.321L199.35 134.988Z" fill="white"/>
<path d="M215.296 142.232L215.961 141.661L215.391 140.994L214.726 141.565L215.296 142.232Z" fill="white"/>
<path d="M222.535 137.055L222.962 137.154L223.061 136.727L222.635 136.627L222.535 137.055Z" fill="white"/>
<path d="M210.424 128.7L210.998 128.699L210.997 128.123L210.423 128.125L210.424 128.7Z" fill="white"/>
<path d="M228.14 143.784L228.714 143.783L228.713 143.208L228.139 143.209L228.14 143.784Z" fill="white"/>
<path d="M205.964 132.29L206.538 132.289L206.537 131.714L205.962 131.715L205.964 132.29Z" fill="white"/>
<path d="M204.512 133.962L205.087 133.96L205.085 133.385L204.511 133.387L204.512 133.962Z" fill="white"/>
<path d="M87.6921 103.497L88.2662 103.495L88.2647 102.92L87.6906 102.922L87.6921 103.497Z" fill="white"/>
<path d="M73.6128 124.432C72.0207 124.381 70.5588 124.977 69.4757 125.982C70.8311 130.261 73.7341 136.089 73.7341 136.089C76.7289 135.935 79.1555 133.504 79.2502 130.447C79.3508 127.227 76.8265 124.532 73.6128 124.435V124.432Z" fill="#ABCE1E" stroke="black" stroke-width="0.645205" stroke-linecap="round" stroke-linejoin="round"/>
<path d="M230.263 156.404L236.223 149.985C235.998 149.41 235.764 148.835 235.522 148.257L206.346 149.882C204.556 149.982 202.875 149.01 202.064 147.406L192.453 128.357L189.964 131.529L194.432 125.836C196.019 123.817 197.022 121.401 197.335 118.851L200.265 95.058C200.608 92.2828 200.162 89.4662 198.978 86.9342L194.983 78.3865L195.77 69.0204L185.931 48.5123L162.221 41.4144L123.638 62.1182V103.232L127.82 137.281L134.59 142.117L142.083 168.717C144.069 175.768 141.953 183.34 136.603 188.333L130.708 193.833C136.132 196.993 141.601 199.766 147.052 202.143L230.26 171.656V156.407L230.263 156.404Z" fill="white"/>
<path d="M188.233 67.8259C186.582 67.221 184.729 67.7399 183.628 69.1126L181.802 71.3956C180.962 72.4452 180.823 73.895 181.453 75.0869L182.687 77.4262L187.345 74.6184C188.896 73.6845 190.801 73.5599 192.462 74.2863L194.098 75.0038L191.364 68.9762L188.233 67.8318V67.8259Z" fill="#ABCE1E"/>
<path d="M205.402 162.266L201.609 177.965L211.318 173.769C213.685 172.746 216.346 172.616 218.802 173.408L222.356 174.552L230.263 171.658V160.62L211.62 158.029C208.767 157.632 206.08 159.467 205.402 162.272V162.266Z" fill="#ABCE1E"/>
<path d="M205.722 61.3295L204.47 60.5704C203.896 60.2206 203.692 59.4853 204.006 58.8894L205.184 56.6598C206.589 53.9973 206.246 50.7478 204.313 48.4411L199.008 42.1022C198.661 41.6871 198.093 41.5389 197.587 41.7286L195.64 42.461C195.27 42.6003 194.859 42.5588 194.524 42.3513C194.19 42.1437 193.971 41.7909 193.929 41.3995L193.527 37.5007C193.453 36.7832 193.11 36.1191 192.571 35.6417L182.942 27.1474C181.19 25.6027 178.938 24.7517 176.606 24.7517H175.697C175.026 22.7327 173.102 21.4044 170.98 21.4963L162.771 21.8432C160.576 21.9351 158.566 23.1062 157.397 24.9741L155.225 28.446C154.861 29.0271 154.213 29.3621 153.533 29.3236L146.368 28.9174C145.087 28.8433 143.912 29.629 143.489 30.8416C143.131 31.8615 142.361 32.6828 141.367 33.1008L132.401 36.884C130.85 37.5393 129.841 39.0602 129.841 40.7473V43.2882C129.841 43.2882 124.076 42.6448 120.525 45.8528L108.291 56.8999C106.332 58.667 105.137 61.1308 104.95 63.7636L104.832 65.4477L99.0319 70.3041C97.644 71.4664 97.2149 73.4202 97.9873 75.0598L100.908 81.2505L98.6087 99.1079C98.4578 100.27 98.9461 101.424 99.8812 102.123L100.754 102.778C101.479 103.324 101.947 104.148 102.039 105.05L102.263 107.276C102.4 108.619 103.246 109.784 104.48 110.327L107.407 111.617C107.407 112.898 108.09 114.081 109.197 114.724L113.642 117.295L116.068 128.279L114.988 132.801C114.618 134.351 115.033 135.985 116.101 137.168L117.782 139.033C119.531 140.975 122.019 142.081 124.63 142.081L134.348 153.184C135.173 154.127 136.86 154.729 138.094 154.524L133.797 139.27L130.634 136.889L132.273 128.869L127.681 122.495L126.041 107.507L130.965 108.213C132.182 108.388 133.401 107.905 134.17 106.947C134.91 106.028 135.132 104.795 134.765 103.671L129.58 87.8533L132.726 81.547C133.717 79.5605 134.2 77.3576 134.129 75.1369L133.975 70.2389L140.861 68.6171C143.32 68.039 145.247 66.1296 145.853 63.6747L148.212 54.1367L150.488 54.9075C151.869 55.376 153.391 55.1951 154.625 54.4154L164.941 47.8926L188.239 53.3184L195.776 69.0233L194.989 78.3894L196.954 82.5965L202.218 76.9218L201.484 75.0035L204.521 74.4402L205.503 73.3817C206.793 71.9882 207.512 70.1589 207.512 68.2584V64.5078C207.512 63.2092 206.835 62.0055 205.728 61.3324L205.722 61.3295Z" fill="white"/>
<path d="M194.983 78.3832L196.634 81.9114L199.117 77.4226L195.223 75.5428L194.983 78.3832Z" fill="#ABCE1E"/>
<path d="M202.748 62.2395L201.082 61.2314C200.532 60.8964 200.333 60.1907 200.635 59.6185L201.819 57.3652C202.585 55.9035 202.544 54.1483 201.706 52.7281L200.005 49.8433C198.8 47.8005 196.332 46.8814 194.089 47.6434L185.114 50.6824C184.389 50.9284 183.821 51.4977 183.578 52.2271L185.309 52.6303C187.162 53.0602 188.715 54.3114 189.541 56.028L195.776 69.0201L195.353 74.0634L197.942 72.1214L201.484 75.0003L204.337 71.1875V65.0561C204.337 63.9057 203.736 62.8384 202.754 62.2424L202.748 62.2395Z" fill="#ABCE1E"/>
<path d="M190.269 52.1855L189.032 49.5082C188.218 47.7501 188.967 45.6628 190.713 44.8237L195.643 42.4578" stroke="black" stroke-width="0.645205" stroke-linecap="round" stroke-linejoin="round"/>
<path d="M183.495 41.7877L181.746 42.265C180.894 42.4963 180.163 43.0448 179.701 43.7979L177.6 47.2253L176.692 45.4019C176.073 44.1626 176.393 42.6564 177.464 41.7788L178.287 41.1028C179.544 40.071 180.332 38.5708 180.471 36.946C180.61 35.3213 180.086 33.7114 179.021 32.4809L175.31 28.1937C172.88 25.3889 168.989 24.3512 165.491 25.5787L156.974 28.5643C155.548 29.0654 154.524 30.3314 154.338 31.8376L154.32 31.9799C154.119 33.6105 152.958 34.9625 151.378 35.4073L137.431 39.3357C136.206 39.6797 135.117 40.3912 134.303 41.3696L129.779 46.8309L120.575 49.6743C118.741 50.2406 117.048 51.1834 115.598 52.4435L112.461 55.1711C111.564 55.9509 111.049 57.0805 111.049 58.2694V61.5753C111.049 63.4758 110.191 65.2755 108.712 66.4673L98.0139 75.0981L100.914 81.2443L98.6502 98.8112C98.4785 100.151 99.0378 101.483 100.118 102.292L100.568 102.63C101.414 103.264 101.953 104.228 102.05 105.281L102.255 107.472C102.42 109.239 103.397 110.828 104.894 111.774L113.639 117.288L116.065 128.273L114.985 132.798C114.615 134.348 115.03 135.982 116.098 137.165L117.779 139.03C119.528 140.972 122.016 142.078 124.627 142.078L134.345 153.181C135.277 154.248 136.694 154.753 138.091 154.521L133.794 139.267L130.631 136.886L132.27 128.866L127.678 122.492L126.038 107.504L132.927 108.492L135.354 105.467L129.58 87.853L134.238 78.5196L133.975 70.2387L144.865 67.674L148.212 54.1334L152.674 55.6455L164.943 47.8894L179.645 51.3138L180.755 50.1249L185.481 44.9927C186.081 44.3404 186.161 43.3591 185.676 42.6178C185.206 41.9003 184.33 41.5683 183.504 41.7936L183.495 41.7877Z" fill="#ABCE1E"/>
<path d="M125.103 134.861C124.292 136.16 124.39 137.829 125.352 139.021L126.088 139.937L130.255 144.696C131.693 146.338 133.939 147.02 136.046 146.454L139.885 145.422L140.015 142.698L132.19 123.521L125.103 134.858V134.861Z" stroke="black" stroke-width="0.645205" stroke-linecap="round" stroke-linejoin="round"/>
<path d="M146.809 192.283L148.733 181.511L153.849 190.91C155.122 193.246 157.178 195.052 159.655 196.006C159.655 196.006 159.333 186.385 154.163 178.087L143.072 160.283C138.985 153.724 141.657 146.733 141.657 146.733L163.082 176.969C164.648 179.181 167.121 180.574 169.82 180.764C170.273 180.797 170.708 180.583 170.96 180.207C171.214 179.83 171.247 179.347 171.045 178.938L152.438 140.961C152.13 140.335 152.219 139.585 152.665 139.048C153.112 138.512 153.831 138.289 154.5 138.476L168.083 142.301C172.152 143.448 176.517 142.161 179.322 138.992L187.608 129.623C188.662 128.431 189.138 126.836 188.913 125.259L188.573 122.881C188.39 121.591 187.298 120.627 185.999 120.604L182.362 120.541C181.296 120.524 180.249 120.835 179.367 121.431L176.772 123.189C175.224 124.239 173.2 124.262 171.625 123.251L165.299 119.189C162.52 117.405 160.404 114.751 159.282 111.641L154.725 99.0016C153.494 95.586 151.582 92.4581 149.105 89.8105L144.048 84.3966C142.728 82.9853 142.465 80.8832 143.391 79.1843L146.01 74.399L151.973 69.5544L157.312 67.9385C159.649 67.2299 161.15 67.6687 161.15 67.6687L159.513 70.177L162.848 70.3964L167.107 77.2453C167.604 78.0429 168.361 78.6418 169.255 78.9353L171.602 79.7121L172.688 89.6652C172.729 90.0536 172.948 90.4005 173.28 90.608C173.611 90.8155 174.02 90.8571 174.383 90.7207L175.28 90.3916C176.304 90.015 177.452 90.2285 178.275 90.949L180.142 92.5826L174.904 94.4327C172.593 95.248 171.155 99.7902 175.961 101.21L181.157 102.746C183.557 103.369 184.741 101.854 184.353 100.65L184.122 99.9325C183.723 98.6962 184.8 97.7118 185.859 97.783L188.254 97.9401L188.896 97.0714C189.369 96.431 189.464 95.5831 189.144 94.8507L188.6 93.6144C188.984 92.974 189.209 92.2624 189.251 91.5004L185.851 91.4115C184.723 91.3818 183.67 90.8482 182.977 89.9557L181.856 88.5089L175.934 73.136L175.363 70.0229C174.958 67.814 173.185 66.1151 170.963 65.8098L164.579 64.9351C162.875 64.7009 161.144 64.7039 159.439 64.944L154.932 65.5755C152.979 65.8483 151.035 65.0181 149.881 63.4171L149.271 62.5691C148.786 61.8961 148.647 61.0363 148.895 60.2447C149.144 59.4531 149.751 58.8275 150.529 58.5547L176.34 49.5266L176.215 45.6041L162.209 41.4088L123.626 62.1126V103.227L127.115 125.481L130.862 137.136C131.211 138.221 131.903 139.164 132.835 139.819L134.206 140.783L142.074 168.712C144.06 175.762 141.944 183.335 136.594 188.327L130.699 193.827C134.442 196.009 138.207 198.008 141.971 199.816C144.507 198.052 146.25 195.345 146.797 192.28L146.809 192.283Z" fill="#ABCE1E"/>
<path d="M149.665 141.518C148.771 139.819 149.026 137.21 150.233 135.718L152.307 133.154C146.549 133.4 140.328 130.429 137.331 125.629L135.981 123.47C135.41 124.858 135.531 127.067 136.253 128.38L146.419 146.902C146.972 147.907 148.339 148.93 149.458 149.173L151.76 149.671C153.124 149.967 153.707 149.197 153.056 147.96L149.662 141.518H149.665Z" fill="black"/>
<path d="M189.964 131.526L194.433 125.834C196.019 123.814 197.022 121.398 197.336 118.845L200.265 95.0522C200.609 92.2771 200.162 89.4604 198.978 86.9284L194.983 78.3807L195.77 69.0146" stroke="black" stroke-width="0.645205" stroke-linecap="round" stroke-linejoin="round"/>
<path d="M194.983 78.3834L196.634 81.9116L199.117 77.4228L195.223 75.5431L194.983 78.3834Z" fill="#ABCE1E"/>
<path d="M186.857 103.754C186.07 103.513 185.217 103.602 184.498 104.003C182.226 105.266 181.533 102.683 178.006 104.456L170.874 108.044C171.415 109.31 172.294 109.298 173.673 108.921L178.201 107.685C178.879 107.522 179.589 107.534 180.261 107.727L181.785 108.159C182.791 108.444 183.865 108.331 184.788 107.842C185.543 107.445 186.442 107.442 187.2 107.836C187.854 108.177 188.656 107.982 189.082 107.38L189.274 107.11L188.739 105.574C188.437 104.702 187.736 104.026 186.854 103.757L186.857 103.754Z" fill="#ABCE1E"/>
<path d="M123.591 84.3074C123.088 82.8516 121.721 81.8732 120.182 81.8732H116.814C114.763 81.8732 112.896 80.9541 111.641 79.4746L105.116 88.6776C104.347 89.7657 104.444 91.2452 105.35 92.2206L106.563 93.5252C107.22 94.2308 107.469 95.227 107.223 96.1609L104.595 106.096C104.249 107.404 104.743 108.791 105.838 109.586L110.934 113.28C111.434 113.642 112.094 113.686 112.636 113.39C113.177 113.096 113.23 112.468 113.473 111.901L118.235 100.745L123.834 94.4591L125.133 93.3769C125.872 92.7632 126.154 91.7522 125.84 90.842L123.591 84.3103V84.3074Z" stroke="black" stroke-width="0.645205" stroke-linecap="round" stroke-linejoin="round"/>
<path d="M123.836 94.4564L125.136 93.3742C125.875 92.7575 126.156 91.7495 125.843 90.8392L123.594 84.3076C123.091 82.8519 121.723 81.8734 120.185 81.8734H116.817C114.766 81.8734 112.899 80.9543 111.644 79.4749C110.893 78.5854 110.36 77.4973 110.141 76.2847L109.759 74.1559C108.957 69.6908 111.55 65.3146 115.843 63.8796L120.448 62.3408" stroke="black" stroke-width="0.645205" stroke-linecap="round" stroke-linejoin="round"/>
<path d="M161.99 130.705L155.785 132.576C154.666 132.914 153.497 133.1 152.307 133.151C146.549 133.397 140.328 130.426 137.331 125.626L135.981 123.468L132.853 118.463" stroke="black" stroke-width="0.645205" stroke-linecap="round" stroke-linejoin="round"/>
<path d="M165.065 129.777L167.145 129.148" stroke="black" stroke-width="0.645205" stroke-linecap="round" stroke-linejoin="round"/>
<path d="M118.826 112.761L118.448 114.401C118.196 115.498 118.646 116.633 119.578 117.259L126.538 121.923C128.101 122.969 129.255 124.523 129.808 126.323L132.646 135.552" stroke="black" stroke-width="0.645205" stroke-linecap="round" stroke-linejoin="round"/>
<path d="M188.26 97.9366L188.902 97.0679C189.375 96.4275 189.47 95.5796 189.15 94.8472L188.606 93.6109C189.461 92.1818 189.535 90.4029 188.529 88.4935L184.708 81.2503L181.456 75.0834C180.829 73.8944 180.965 72.4446 181.805 71.3921L183.631 69.1091" stroke="black" stroke-width="0.645205" stroke-linecap="round" stroke-linejoin="round"/>
<path d="M171.936 96.9201L171.655 95.0137C171.454 93.6469 171.904 92.2653 172.871 91.278" stroke="black" stroke-width="0.645205" stroke-linecap="round" stroke-linejoin="round"/>
<path d="M179.645 94.2962L175.81 94.9574C174.493 95.1857 173.357 96.8668 175.156 97.7236L181.787 95.2094C181.314 94.5097 180.477 94.1539 179.645 94.2962Z" fill="black"/>
<path d="M164.577 78.481C164.577 78.481 163.896 75.0003 160.28 74.9973C156.868 74.9944 153.112 77.8584 150.946 79.8182C150.621 80.1117 150.508 80.5713 150.656 80.9834C150.807 81.3955 151.189 81.6742 151.627 81.689L156.829 81.864C160.155 81.9766 163.461 81.3095 166.485 79.922L166.5 79.9161" stroke="black" stroke-width="0.645205" stroke-linecap="round" stroke-linejoin="round"/>
<path d="M184.001 79.9163L183.072 78.1521C183.072 78.1521 187.481 74.2948 190.677 76.3643C193.876 78.4338 192.74 81.9917 192.74 81.9917L188.964 81.6863" stroke="black" stroke-width="0.645205" stroke-linecap="round" stroke-linejoin="round"/>
<path d="M164.577 78.4817C164.668 79.0361 164.612 79.5728 164.396 80.0294" stroke="black" stroke-width="0.645205" stroke-linecap="round" stroke-linejoin="round"/>
<path d="M162.623 81.212C162.123 81.3009 161.567 81.2505 161.017 81.0637C160.466 80.877 159.916 80.5538 159.43 80.1031C158.081 78.849 157.687 77.0404 158.472 75.9197" stroke="black" stroke-width="0.645205" stroke-linecap="round" stroke-linejoin="round"/>
<path d="M191.296 81.8732C190.559 81.5796 189.775 80.9244 189.162 80.0083C188.265 78.6711 188.014 77.1975 188.467 76.3615" stroke="black" stroke-width="0.645205" stroke-linecap="round" stroke-linejoin="round"/>
<path d="M179.24 111.133L173.792 111.098C173.425 111.098 173.073 111.249 172.827 111.525C172.581 111.798 172.46 112.162 172.498 112.53L172.706 114.481C172.851 115.839 174.295 116.595 176.239 116.031L182.297 114.273C183.252 113.995 184.273 114.03 185.205 114.374L187.233 115.115L188.967 110.428L185.031 110.3C182.776 110.229 181.267 111.145 179.24 111.133Z" fill="#ABCE1E"/>
<path d="M134.297 41.3699C134.297 41.3699 143.089 37.1301 145.581 49.1586" stroke="black" stroke-width="0.645205" stroke-linecap="round" stroke-linejoin="round"/>
<path d="M188.606 93.6138L185.966 96.7921" stroke="black" stroke-width="0.645205" stroke-linecap="round" stroke-linejoin="round"/>
<path d="M176.937 171.922L176.547 182.815C176.508 183.871 177.183 184.817 178.189 185.128L186.194 166.657L180.844 167.505C178.654 167.852 177.017 169.702 176.94 171.922H176.937Z" fill="#ABCE1E"/>
<path d="M187.502 94.9426L186.496 96.1582L188.055 97.0714L188.174 96.8401C188.431 96.342 188.328 95.7313 187.922 95.3459L187.505 94.9456L187.502 94.9426Z" fill="black"/>
<path d="M205.722 61.3294L204.47 60.5704C203.896 60.2206 203.692 59.4853 204.006 58.8894L205.183 56.6598C206.589 53.9973 206.246 50.7478 204.313 48.4411L199.709 42.9413C198.942 42.0251 197.682 41.6931 196.563 42.1141L195.64 42.461C195.27 42.6003 194.859 42.5588 194.524 42.3513C194.19 42.1437 193.971 41.7909 193.929 41.3995L193.527 37.5007C193.453 36.7832 193.11 36.1191 192.571 35.6417L182.942 27.1474C181.19 25.6027 178.938 24.7517 176.606 24.7517H175.697C175.026 22.7327 173.102 21.4044 170.98 21.4963L162.771 21.8432C160.576 21.9351 158.566 23.1062 157.397 24.9741L155.225 28.446C154.861 29.0271 154.213 29.3621 153.533 29.3236L146.368 28.9174C145.087 28.8433 143.912 29.629 143.489 30.8416C143.131 31.8615 142.361 32.6828 141.367 33.1008L132.401 36.884C130.85 37.5393 129.841 39.0602 129.841 40.7473V43.2882C129.841 43.2882 124.076 42.6448 120.525 45.8528L108.291 56.8999C106.332 58.667 105.137 61.1308 104.95 63.7636L104.832 65.4477L99.0319 70.3041C97.644 71.4664 97.2149 73.4202 97.9873 75.0598L100.908 81.2505L98.6087 99.1079C98.4578 100.27 98.9461 101.423 99.8812 102.123L100.754 102.778C101.479 103.324 101.947 104.148 102.039 105.05L102.26 107.469C102.423 109.242 103.4 110.834 104.903 111.783L113.642 117.294L116.068 128.279L114.988 132.801C114.618 134.351 115.033 135.985 116.101 137.168L117.782 139.033C119.531 140.975 122.019 142.081 124.63 142.081L134.348 153.184C135.28 154.252 136.697 154.759 138.094 154.524L133.797 139.27L128.962 123.547L126.041 107.51L130.965 108.216C132.182 108.391 133.401 107.908 134.17 106.95C134.91 106.031 135.132 104.798 134.765 103.674L129.58 87.8562L132.726 81.5499C133.717 79.5634 133.433 75.0064 131.415 72.9696L134.86 69.5184L140.858 68.6201C143.356 68.2465 145.244 66.1325 145.85 63.6776L147.798 55.797C147.904 55.37 148.182 55.0083 148.567 54.7978C148.952 54.5873 149.407 54.5458 149.822 54.6881L150.482 54.9105C151.864 55.3789 153.385 55.1981 154.619 54.4183L162.721 49.295C164.139 48.3996 165.855 48.1091 167.485 48.4886L185.306 52.6394C187.159 53.0693 188.712 54.3205 189.538 56.0371L195.77 69.0292L194.983 78.3953L196.948 82.6024L202.212 76.9277L201.479 75.0094L204.515 74.4461L205.497 73.3876C206.787 71.9941 207.507 70.1648 207.507 68.2643V64.5137C207.507 63.2151 206.829 62.0114 205.722 61.3383V61.3294Z" stroke="black" stroke-width="0.645205" stroke-linecap="round" stroke-linejoin="round"/>
<path d="M175.694 24.7488L176.417 27.6069" stroke="black" stroke-width="0.645205" stroke-linecap="round" stroke-linejoin="round"/>
<path d="M109.141 61.8367L104.832 65.442" stroke="black" stroke-width="0.645205" stroke-linecap="round" stroke-linejoin="round"/>
<path d="M137.496 69.1155L135.818 69.3675C133.927 69.6491 132.001 69.1422 130.492 67.9651L126.426 64.7867" stroke="black" stroke-width="0.645205" stroke-linecap="round" stroke-linejoin="round"/>
<path d="M127.083 69.3788L131.412 72.9604" stroke="black" stroke-width="0.645205" stroke-linecap="round" stroke-linejoin="round"/>
<path d="M123.62 91.7225C122.061 89.6945 119.439 88.7961 116.965 89.4484C114.124 90.1956 112.1 92.7098 111.97 95.6509L111.718 101.367C111.555 105.032 112.899 108.604 115.435 111.252L117.243 113.138C118.016 113.944 119.084 114.401 120.202 114.401H121.901C122.673 114.401 123.428 114.617 124.079 115.029L127.562 117.22C128.565 117.852 129.861 117.757 130.761 116.986L132.856 115.192L125.443 94.0944L123.62 91.7254V91.7225Z" fill="#ABCE1E"/>
<path d="M126.529 95.5086L123.62 91.7225C122.061 89.6945 119.439 88.7961 116.965 89.4484C114.124 90.1956 112.1 92.7098 111.97 95.6509L111.718 101.367C111.555 105.032 112.899 108.604 115.435 111.252L117.243 113.138C118.016 113.944 119.084 114.401 120.202 114.401H121.901C122.673 114.401 123.428 114.617 124.079 115.029L127.562 117.22C128.565 117.852 129.861 117.757 130.761 116.986L132.856 115.192" stroke="black" stroke-width="0.645205" stroke-linecap="round" stroke-linejoin="round"/>
<path d="M124.573 99.8762L119.717 93.9879C118.619 92.6567 116.696 92.375 115.263 93.3356C113.757 94.3467 112.926 96.1078 113.106 97.9193L113.621 103.111C113.831 105.222 114.84 107.17 116.441 108.557L118.424 110.274" stroke="black" stroke-width="0.645205" stroke-linecap="round" stroke-linejoin="round"/>
<path d="M119.717 93.9879C118.619 92.6567 116.696 92.375 115.264 93.3356C114.509 93.8426 113.926 94.5334 113.553 95.328L115.894 94.8448C117.051 94.6076 118.241 95.0642 118.936 96.0188L122.952 101.516L124.576 99.8732L121.052 95.6008L119.72 93.9849L119.717 93.9879Z" fill="black" stroke="black" stroke-width="0.645205" stroke-linecap="round" stroke-linejoin="round"/>
<path d="M122.854 97.7767L118.238 100.742C117.116 101.462 116.577 102.823 116.903 104.119L117.11 104.943C117.4 106.096 118.326 106.983 119.489 107.226C120.466 107.427 121.481 107.181 122.256 106.556L122.952 105.995L124.73 106.464C126.722 106.989 127.823 105.699 127.823 105.699L124.576 99.8818L122.857 97.7797L122.854 97.7767Z" fill="black" stroke="black" stroke-width="0.645205" stroke-linecap="round" stroke-linejoin="round"/>
<path d="M162.472 76.664C163.177 77.2273 163.399 78.1227 162.967 78.6682C162.535 79.2138 161.611 79.1989 160.904 78.6386C160.2 78.0752 159.978 77.1798 160.41 76.6343C160.51 76.5068 160.638 76.4119 160.783 76.3438" stroke="black" stroke-width="0.645205" stroke-linecap="round" stroke-linejoin="round"/>
<path d="M191.929 78.4341C192.32 79.0774 192.373 79.7475 192.024 80.0173C191.627 80.3256 190.855 79.9995 190.304 79.285C189.754 78.5704 189.627 77.7432 190.023 77.4319C190.266 77.2422 190.648 77.2926 191.032 77.5209" stroke="black" stroke-width="0.645205" stroke-linecap="round" stroke-linejoin="round"/>
<path d="M132.856 66.6843L132.315 66.3463C131.315 65.7237 130.945 64.4428 131.46 63.3785L131.963 62.3378L133.575 59.0112C134.087 57.9557 133.762 56.6867 132.809 56.0078L128.704 53.0844C127.296 52.0793 125.461 51.8984 123.881 52.6071C122.301 53.3157 121.244 54.7655 121.028 56.4584L120.72 58.8807" stroke="black" stroke-width="0.645205" stroke-linecap="round" stroke-linejoin="round"/>
<path d="M135.446 43.8279L129.838 43.2853" stroke="black" stroke-width="0.645205" stroke-linecap="round" stroke-linejoin="round"/>
<path d="M110.484 115.291L116.202 118.914C116.932 119.376 117.359 120.197 117.317 121.063L117.228 122.967C117.131 125.018 118.323 126.913 120.211 127.71L122.667 128.748C123.736 129.199 124.949 129.163 125.991 128.65L127.453 127.93" stroke="black" stroke-width="0.645205" stroke-linecap="round" stroke-linejoin="round"/>
<path d="M230.263 171.653L237.229 184.209L240.591 179.234C241.843 170.268 240.268 160.267 236.223 149.985L230.263 156.404V171.653Z" fill="white" stroke="black" stroke-width="0.645205" stroke-linecap="round" stroke-linejoin="round"/>
<path d="M230.263 171.653L147.055 202.14C153.518 204.96 159.954 207.228 166.251 208.936L237.229 184.209L230.263 171.653Z" fill="white"/>
<path d="M166.251 208.936L191.352 200.192L177.645 190.933L147.055 202.14C153.518 204.96 159.954 207.228 166.251 208.936Z" fill="#ABCE1E"/>
<path d="M130.711 193.83C136.135 196.99 141.604 199.763 147.055 202.14" stroke="black" stroke-width="0.645205" stroke-linecap="round" stroke-linejoin="round"/>
<path d="M235.525 148.257L236.223 149.986" stroke="black" stroke-width="0.645205" stroke-linecap="round" stroke-linejoin="round"/>
<path d="M230.263 171.653L147.055 202.14C153.518 204.96 159.954 207.228 166.251 208.936L237.229 184.209L230.263 171.653Z" stroke="black" stroke-width="0.645205" stroke-linecap="round" stroke-linejoin="round"/>
<path d="M157.028 63.4283H162.55V70.9058H155.086V65.3733C155.086 64.3 155.956 63.4283 157.028 63.4283Z" fill="black"/>
<path d="M170.013 63.4283H162.55V70.9058H170.013V63.4283Z" fill="black"/>
<path d="M184.939 63.4283H177.476V70.9058H184.939V63.4283Z" fill="black"/>
<path d="M177.476 63.4283H170.013V70.9058H177.476V63.4283Z" fill="black"/>
<path d="M192.399 63.4283H184.936V70.9058H192.399V63.4283Z" fill="black"/>
<path d="M192.399 63.4283H197.921C198.993 63.4283 199.863 64.3 199.863 65.3733V70.9058H192.399V63.4283Z" fill="black"/>
<path d="M155.086 70.9055H147.623V78.3829H155.086V70.9055Z" fill="black"/>
<path d="M142.104 63.4283H145.682C146.753 63.4283 147.623 64.3 147.623 65.3733V70.9058H142.101C141.03 70.9058 140.16 70.0341 140.16 68.9608V65.3763C140.16 64.303 141.03 63.4313 142.101 63.4313L142.104 63.4283Z" fill="black"/>
<path d="M162.55 70.9055H155.086V78.3829H162.55V70.9055Z" fill="black"/>
<path d="M170.013 70.9055H162.55V78.3829H170.013V70.9055Z" fill="black"/>
<path d="M177.476 70.9055H170.013V78.3829H177.476V70.9055Z" fill="black"/>
<path d="M184.939 70.9055H177.476V78.3829H184.939V70.9055Z" fill="black"/>
<path d="M192.399 70.9055H184.936V78.3829H192.399V70.9055Z" fill="black"/>
<path d="M199.863 70.9055H192.399V78.3829H199.863V70.9055Z" fill="black"/>
<path d="M147.623 78.3833H155.086V85.8607H149.564C148.493 85.8607 147.623 84.9891 147.623 83.9158V78.3833Z" fill="black"/>
<path d="M162.55 78.3833H155.086V85.8607H162.55V78.3833Z" fill="black"/>
<path d="M170.013 78.3833H162.55V85.8607H170.013V78.3833Z" fill="black"/>
<path d="M170.013 78.3833H177.476V83.9158C177.476 84.9891 176.606 85.8607 175.535 85.8607H170.013V78.3833Z" fill="black"/>
<path d="M199.863 78.3833H192.399V85.8607H199.863V78.3833Z" fill="black"/>
<path d="M184.936 78.3833H192.399V85.8607H186.877C185.806 85.8607 184.936 84.9891 184.936 83.9158V78.3833Z" fill="black"/>
<path d="M199.863 78.3833H207.326V83.9158C207.326 84.9891 206.456 85.8607 205.385 85.8607H199.863V78.3833Z" fill="black"/>
<path d="M209.267 70.9059H212.845C213.916 70.9059 214.786 71.7776 214.786 72.8509V76.4354C214.786 77.5087 213.916 78.3804 212.845 78.3804H207.323V72.8479C207.323 71.7746 208.193 70.903 209.264 70.903L209.267 70.9059Z" fill="black"/>
<path d="M182.88 70.9057C184.016 70.9057 184.939 71.8307 184.939 72.9692C184.939 71.8307 185.863 70.9057 186.999 70.9057C185.863 70.9057 184.939 69.9806 184.939 68.8421C184.939 69.9806 184.016 70.9057 182.88 70.9057Z" fill="#ABCE1E"/>
<path d="M180.036 70.9057H182.88M182.88 70.9057C184.016 70.9057 184.939 71.8307 184.939 72.9692M182.88 70.9057C184.016 70.9057 184.939 69.9806 184.939 68.8421M184.939 72.9692V78.3831M184.939 72.9692C184.939 71.8307 185.863 70.9057 186.999 70.9057M186.999 70.9057H198.087M186.999 70.9057C185.863 70.9057 184.939 69.9806 184.939 68.8421M184.939 68.8421V66.7993" stroke="#ABCE1E" stroke-width="0.645205" stroke-linecap="round" stroke-linejoin="round"/>
<path d="M160.987 70.9058C161.851 70.9058 162.549 71.6055 162.549 72.4712C162.549 71.6055 163.248 70.9058 164.112 70.9058C163.248 70.9058 162.549 70.2061 162.549 69.3403C162.549 70.2061 161.851 70.9058 160.987 70.9058Z" fill="#ABCE1E"/>
<path d="M160.587 70.9058H160.987M160.987 70.9058C161.851 70.9058 162.549 71.6055 162.549 72.4712M160.987 70.9058C161.851 70.9058 162.549 70.2061 162.549 69.3403M162.549 72.4712V73.9122M162.549 72.4712C162.549 71.6055 163.248 70.9058 164.112 70.9058M164.112 70.9058H170.013M164.112 70.9058C163.248 70.9058 162.549 70.2061 162.549 69.3403M162.549 69.3403V63.4283" stroke="#ABCE1E" stroke-width="0.645205" stroke-linecap="round" stroke-linejoin="round"/>
<path d="M190.825 78.3831C191.695 78.3831 192.402 79.0917 192.402 79.9634C192.402 79.0917 193.11 78.3831 193.98 78.3831C193.11 78.3831 192.402 77.6745 192.402 76.8028C192.402 77.6745 191.695 78.3831 190.825 78.3831Z" fill="#ABCE1E"/>
<path d="M186.768 78.3831H190.825M190.825 78.3831C191.695 78.3831 192.402 79.0917 192.402 79.9634M190.825 78.3831C191.695 78.3831 192.402 77.6745 192.402 76.8028M192.402 79.9634V85.8605M192.402 79.9634C192.402 79.0917 193.11 78.3831 193.98 78.3831M193.98 78.3831H194.986M193.98 78.3831C193.11 78.3831 192.402 77.6745 192.402 76.8028M192.402 76.8028V74.6444" stroke="#ABCE1E" stroke-width="0.645205" stroke-linecap="round" stroke-linejoin="round"/>
<path d="M153.394 78.3831C154.329 78.3831 155.086 79.1421 155.086 80.079C155.086 79.1421 155.844 78.3831 156.779 78.3831C155.844 78.3831 155.086 77.6241 155.086 76.6872C155.086 77.6241 154.329 78.3831 153.394 78.3831Z" fill="#ABCE1E"/>
<path d="M147.623 78.3831H153.394M153.394 78.3831C154.329 78.3831 155.086 79.1421 155.086 80.079M153.394 78.3831C154.329 78.3831 155.086 77.6241 155.086 76.6872M155.086 80.079V85.8605M155.086 80.079C155.086 79.1421 155.844 78.3831 156.779 78.3831M156.779 78.3831H159.2M156.779 78.3831C155.844 78.3831 155.086 77.6241 155.086 76.6872M155.086 76.6872V75.009" stroke="#ABCE1E" stroke-width="0.645205" stroke-linecap="round" stroke-linejoin="round"/>
<defs>
<filter id="filter0_f_162_18195" x="21.3573" y="0.508541" width="251.396" height="251.396" filterUnits="userSpaceOnUse" color-interpolation-filters="sRGB">
<feFlood flood-opacity="0" result="BackgroundImageFix"/>
<feBlend mode="normal" in="SourceGraphic" in2="BackgroundImageFix" result="shape"/>
<feGaussianBlur stdDeviation="20.6788" result="effect1_foregroundBlur_162_18195"/>
</filter>
<clipPath id="clip0_162_18195">
<rect width="15.4849" height="15.4849" fill="white" transform="translate(221.323 57.4844) rotate(9.01149)"/>
</clipPath>
<clipPath id="clip1_162_18195">
<rect width="10.3233" height="10.3233" fill="white" transform="translate(7.90244 173.412) rotate(-9.06663)"/>
</clipPath>
<clipPath id="clip2_162_18195">
<rect width="10.3233" height="10.3233" fill="white" transform="translate(227.206 135.284) rotate(0.420872)"/>
</clipPath>
<clipPath id="clip3_162_18195">
<rect width="15.4849" height="15.4849" fill="white" transform="translate(50.1871 45.6184) rotate(-6.48963)"/>
</clipPath>
<clipPath id="clip4_162_18195">
<rect width="15.4849" height="15.4849" fill="white" transform="translate(129.145 209.518) rotate(9.13722)"/>
</clipPath>
</defs>
</svg>
