<svg width="14" height="15" viewBox="0 0 14 15" fill="none" xmlns="http://www.w3.org/2000/svg">
<g id="edit-button-svgrepo-com 2" clip-path="url(#clip0_202_8953)">
<g id="Group">
<path id="Vector" d="M12.8099 2.43921C12.2242 1.85348 11.2712 1.85372 10.686 2.43921L2.36369 10.7617C2.35255 10.7729 2.22704 10.9033 2.19453 10.9764L1.04205 13.5656C0.960203 13.7494 1.00003 13.9646 1.14237 14.1068C1.23536 14.1997 1.35967 14.2491 1.48613 14.2491C1.55278 14.2491 1.61991 14.2353 1.68349 14.207L4.27272 13.0545C4.34554 13.0221 4.47622 12.8966 4.48744 12.8854L12.8099 4.5632C13.0937 4.27944 13.25 3.90226 13.25 3.50108C13.25 3.09995 13.0937 2.72268 12.8099 2.43921ZM12.1229 3.87592L3.80036 12.1984C3.79897 12.1999 3.79817 12.2015 3.79682 12.2027L2.44435 12.8048L3.04643 11.4523C3.04762 11.4509 3.04926 11.4501 3.05069 11.4488L11.373 3.12629C11.5735 2.92578 11.9229 2.92602 12.1229 3.12649C12.2231 3.22636 12.2783 3.35947 12.2783 3.50108C12.2783 3.6427 12.223 3.77576 12.1229 3.87592Z" fill="#444444"/>
</g>
</g>
<defs>
<clipPath id="clip0_202_8953">
<rect width="14" height="14" fill="white" transform="translate(0 0.5)"/>
</clipPath>
</defs>
</svg>
