<svg width="16" height="16" viewBox="0 0 16 16" fill="none" xmlns="http://www.w3.org/2000/svg">
  <path d="M6.82334 6.57008C6.64334 6.47675 6.49667 6.33341 6.40667 6.15341L6.38334 6.10675C6.29334 5.93008 6.04334 5.93008 5.95334 6.10675L5.93001 6.15341C5.83667 6.33341 5.69334 6.48008 5.51334 6.57008L5.46667 6.59341C5.29001 6.68341 5.29001 6.93341 5.46667 7.02341L5.51334 7.04675C5.69334 7.14008 5.84001 7.28341 5.93001 7.46341L5.95334 7.51008C6.04334 7.68675 6.29334 7.68675 6.38334 7.51008L6.40667 7.46341C6.50001 7.28341 6.64334 7.13675 6.82334 7.04675L6.87001 7.02341C7.04667 6.93341 7.04667 6.68341 6.87001 6.59341L6.82334 6.57008Z" fill="black" fill-opacity="0.8"/>
  <path d="M7.98667 7.71341L7.90667 7.75341C7.59001 7.91341 7.59001 8.36675 7.90667 8.53008L7.98667 8.57008C8.31001 8.73675 8.57334 9.00008 8.74001 9.32341L8.78001 9.40341C8.94001 9.72008 9.39334 9.72008 9.55667 9.40341L9.59667 9.32341C9.76334 9.00008 10.0267 8.73675 10.35 8.57008L10.43 8.53008C10.7467 8.37008 10.7467 7.91675 10.43 7.75341L10.35 7.71341C10.0267 7.54675 9.76334 7.28341 9.59667 6.96008L9.55667 6.88008C9.39667 6.56341 8.94334 6.56341 8.78001 6.88008L8.74001 6.96008C8.57334 7.28341 8.31001 7.54675 7.98667 7.71341Z" fill="black" fill-opacity="0.8"/>
  <path d="M13.1933 3.32675L13.0867 3.27341C12.7533 3.10341 12.4867 2.83675 12.3167 2.50341L12.2633 2.39675C12.08 2.03675 11.7133 1.81341 11.31 1.81341C10.9067 1.81341 10.54 2.03675 10.3533 2.39675L10.3 2.50341C10.13 2.83675 9.86334 3.10341 9.53001 3.27341L9.42334 3.32675C9.06334 3.51008 8.84001 3.87675 8.84001 4.28341C8.84001 4.69008 9.06334 5.05341 9.42334 5.24008L9.53001 5.29341C9.86334 5.46341 10.13 5.73008 10.3 6.06341L10.3533 6.17008C10.5367 6.53008 10.9033 6.75341 11.31 6.75341C11.7167 6.75341 12.08 6.53008 12.2667 6.17008L12.32 6.06341C12.49 5.73008 12.7567 5.46341 13.09 5.29341L13.1967 5.24008C13.5567 5.05675 13.78 4.69008 13.78 4.28675C13.78 3.88341 13.5567 3.51675 13.1967 3.33008L13.1933 3.32675ZM12.74 4.34675L12.6333 4.40008C12.11 4.66675 11.6933 5.08341 11.4267 5.60675L11.3733 5.71341C11.3733 5.71341 11.3533 5.75341 11.31 5.75341C11.2667 5.75341 11.25 5.72341 11.2467 5.71341L11.1933 5.60675C10.9267 5.08341 10.51 4.66675 9.98667 4.40008L9.88001 4.34675C9.88001 4.34675 9.84001 4.32675 9.84001 4.28341C9.84001 4.24008 9.87001 4.22341 9.88001 4.22008L9.98667 4.16675C10.51 3.90008 10.9267 3.48341 11.1933 2.96008L11.2467 2.85341C11.2467 2.85341 11.2667 2.81341 11.31 2.81341C11.3533 2.81341 11.37 2.84008 11.3733 2.85341L11.4267 2.96008C11.6933 3.48341 12.11 3.90008 12.6333 4.16675L12.74 4.22008C12.74 4.22008 12.78 4.24008 12.78 4.28341C12.78 4.32675 12.75 4.34341 12.74 4.34675Z" fill="black" fill-opacity="0.8"/>
  <path d="M12.8333 6.31008C12.5567 6.31008 12.3333 6.53341 12.3333 6.81008C12.3333 9.20008 10.39 11.1434 8.00001 11.1434C5.61001 11.1434 3.66667 9.20008 3.66667 6.81008C3.66667 4.42008 5.61001 2.47675 8.00001 2.47675C8.40667 2.47675 8.81001 2.53341 9.19667 2.64341C9.46334 2.72008 9.74001 2.56675 9.81334 2.30008C9.89001 2.03341 9.73667 1.75675 9.47001 1.68341C8.99334 1.54675 8.50001 1.47675 8.00001 1.47675C5.06001 1.47675 2.66667 3.87008 2.66667 6.81008C2.66667 8.21008 3.21334 9.48008 4.10001 10.4334L3.52667 12.1501C3.51001 12.2001 3.50001 12.2534 3.50001 12.3067C3.50001 13.1934 5.10334 14.4734 8.00001 14.4734C10.8967 14.4734 12.5 13.1934 12.5 12.3067C12.5 12.2534 12.49 12.2001 12.4733 12.1501L11.9 10.4334C12.7867 9.48008 13.3333 8.21008 13.3333 6.81008C13.3333 6.53341 13.11 6.31008 12.8333 6.31008ZM4.52334 12.3234L4.91334 11.1501C5.30334 11.4267 5.73001 11.6534 6.18667 11.8167L5.81001 13.1367C5.04667 12.8701 4.63667 12.5067 4.52334 12.3201V12.3234Z" fill="black" fill-opacity="0.8"/>
</svg>
