<svg width="24" height="25" viewBox="0 0 24 25" fill="none" xmlns="http://www.w3.org/2000/svg">
<g id="UsersThree" clip-path="url(#clip0_209_11354)">
<path id="Vector" d="M18 11.4078C18.8734 11.4072 19.7349 11.6102 20.516 12.0008C21.2972 12.3914 21.9765 12.9587 22.5 13.6578" stroke="#667085" stroke-width="1.7" stroke-linecap="round" stroke-linejoin="round"/>
<path id="Vector_2" d="M1.5 13.6578C2.0235 12.9587 2.70281 12.3914 3.48398 12.0008C4.26514 11.6102 5.12663 11.4072 6 11.4078" stroke="#667085" stroke-width="1.7" stroke-linecap="round" stroke-linejoin="round"/>
<path id="Vector_3" d="M12 17.4078C14.0711 17.4078 15.75 15.7289 15.75 13.6578C15.75 11.5868 14.0711 9.90784 12 9.90784C9.92893 9.90784 8.25 11.5868 8.25 13.6578C8.25 15.7289 9.92893 17.4078 12 17.4078Z" stroke="#667085" stroke-width="1.7" stroke-linecap="round" stroke-linejoin="round"/>
<path id="Vector_4" d="M6.75 20.4078C7.2884 19.4942 8.0559 18.7369 8.97665 18.2107C9.8974 17.6846 10.9395 17.4078 12 17.4078C13.0605 17.4078 14.1026 17.6846 15.0233 18.2107C15.9441 18.7369 16.7116 19.4942 17.25 20.4078" stroke="#667085" stroke-width="1.7" stroke-linecap="round" stroke-linejoin="round"/>
<path id="Vector_5" d="M15.0938 7.65784C15.234 7.11462 15.5238 6.62161 15.9302 6.23481C16.3366 5.84801 16.8433 5.58291 17.3927 5.46963C17.9422 5.35635 18.5125 5.39942 19.0387 5.59395C19.5649 5.78848 20.0261 6.12667 20.3697 6.57012C20.7134 7.01357 20.9258 7.54451 20.9829 8.10264C21.04 8.66076 20.9394 9.22371 20.6926 9.72755C20.4458 10.2314 20.0627 10.6559 19.5867 10.9529C19.1108 11.25 18.561 11.4076 18 11.4078" stroke="#667085" stroke-width="1.7" stroke-linecap="round" stroke-linejoin="round"/>
<path id="Vector_6" d="M6.00001 11.4078C5.43898 11.4076 4.88926 11.25 4.4133 10.9529C3.93733 10.6559 3.55419 10.2314 3.30739 9.72755C3.06059 9.22371 2.96002 8.66076 3.01709 8.10264C3.07417 7.54451 3.28661 7.01357 3.63028 6.57012C3.97396 6.12667 4.4351 5.78848 4.96133 5.59395C5.48756 5.39942 6.0578 5.35635 6.60728 5.46963C7.15676 5.58291 7.66346 5.84801 8.06985 6.23481C8.47623 6.62161 8.76601 7.11462 8.90626 7.65784" stroke="#667085" stroke-width="1.7" stroke-linecap="round" stroke-linejoin="round"/>
</g>
<defs>
<clipPath id="clip0_209_11354">
<rect width="24" height="24" fill="white" transform="translate(0 0.157837)"/>
</clipPath>
</defs>
</svg>
